<?xml version="1.0" encoding="utf-8"?>
<!-- Generator: Adobe Illustrator 15.1.0, SVG Export Plug-In . SVG Version: 6.00 Build 0)  -->
<!DOCTYPE svg PUBLIC "-//W3C//DTD SVG 1.1//EN" "http://www.w3.org/Graphics/SVG/1.1/DTD/svg11.dtd">
<svg version="1.1" id="Layer_1" xmlns="http://www.w3.org/2000/svg" xmlns:xlink="http://www.w3.org/1999/xlink" x="0px" y="0px"
	 width="1000px" height="1000px" viewBox="0 0 1000 1000" enable-background="new 0 0 1000 1000" xml:space="preserve">
<g>
	<path d="M350.492,450.062h-300c-27.625,0-50,22.383-50,50s22.375,50,50,50h300c27.609,0,50-22.383,50-50
		S378.102,450.062,350.492,450.062z M350.492,650.062h-300c-27.625,0-50,22.383-50,50s22.375,50,50,50h300c27.609,0,50-22.383,50-50
		S378.102,650.062,350.492,650.062z M970.492,450.062h-170v-170c0-27.617-22.391-30-50-30c-27.625,0-50,2.383-50,30v170h-165
		c-27.625,0-30,22.383-30,50s2.375,50,30,50h165v170c0,27.617,22.375,30,50,30c27.609,0,50-2.383,50-30v-170h170
		c27.609,0,30-22.383,30-50S998.102,450.062,970.492,450.062z M350.492,250.062h-300c-27.625,0-50,22.383-50,50s22.375,50,50,50h300
		c27.609,0,50-22.383,50-50S378.102,250.062,350.492,250.062z"/>
</g>
</svg>
