<?xml version="1.0" encoding="utf-8"?>
<!-- Generator: Adobe Illustrator 15.1.0, SVG Export Plug-In . SVG Version: 6.00 Build 0)  -->
<!DOCTYPE svg PUBLIC "-//W3C//DTD SVG 1.1//EN" "http://www.w3.org/Graphics/SVG/1.1/DTD/svg11.dtd">
<svg version="1.1" id="Layer_1" xmlns="http://www.w3.org/2000/svg" xmlns:xlink="http://www.w3.org/1999/xlink" x="0px" y="0px"
	 width="1000px" height="1000px" viewBox="0 0 1000 1000" enable-background="new 0 0 1000 1000" xml:space="preserve">
<g>
	<path d="M619.312,722.453C494.75,677.539,454.953,639.641,454.953,558.5c0-48.703,38.016-32.789,54.719-121.992
		c6.93-36.992,40.523-0.594,46.945-85.07c0-33.656-18.336-42.031-18.336-42.031s9.328-49.812,12.969-88.156
		c4.531-47.773-27.891-171.188-200.781-171.188c-172.883,0-205.312,123.414-200.773,171.188
		c3.641,38.344,12.961,88.156,12.961,88.156s-18.344,8.375-18.344,42.031c6.438,84.477,40.023,48.078,46.945,85.07
		c16.719,89.203,54.734,73.289,54.734,121.992c0,81.141-39.805,119.039-164.375,163.953c-14.992,5.406-50.75,13.812-81.148,26.93
		v200.68h800c0,0,0-73.961,0-105.266C800.469,813.469,744.273,767.531,619.312,722.453z M850.469,450.062v-150h-100v150h-150v100
		h150v150h100v-150h150v-100H850.469z"/>
</g>
</svg>
