<?xml version="1.0" encoding="utf-8"?>
<!-- Generator: Adobe Illustrator 15.1.0, SVG Export Plug-In . SVG Version: 6.00 Build 0)  -->
<!DOCTYPE svg PUBLIC "-//W3C//DTD SVG 1.1//EN" "http://www.w3.org/Graphics/SVG/1.1/DTD/svg11.dtd">
<svg version="1.1" id="Layer_1" xmlns="http://www.w3.org/2000/svg" xmlns:xlink="http://www.w3.org/1999/xlink" x="0px" y="0px"
	 width="1000px" height="1000px" viewBox="0 0 1000 1000" enable-background="new 0 0 1000 1000" xml:space="preserve">
<g>
	<path fill-rule="evenodd" clip-rule="evenodd" d="M425.469,50.062h-45c-11,0-20,8.992-20,20v190H183.672
		c-8.25,0-18.5,1.883-28.352,4.922c-9.867,3.023-19.336,7.219-26.047,11.812l-118.75,81.516
		c-6.711,4.602-10.055,10.672-10.055,16.75c0,6.062,3.344,12.125,10.055,16.734l118.75,81.516
		c6.711,4.602,16.18,8.789,26.047,11.828c9.852,3.039,20.102,4.922,28.352,4.922h176.797v440c0,11,9,20,20,20h45
		c10.992,0,20-9,20-20v-860C445.469,59.055,436.461,50.062,425.469,50.062z M990.398,258.32l-118.75-81.508
		c-6.711-4.609-16.18-8.789-26.047-11.836c-9.852-3.031-20.094-4.914-28.352-4.914H475.469l40.031,230h301.75
		c8.258,0,18.5-1.883,28.352-4.922c9.867-3.031,19.336-7.219,26.047-11.82l118.75-81.523c6.711-4.594,10.07-10.664,10.07-16.734
		C1000.469,268.984,997.109,262.922,990.398,258.32z"/>
</g>
</svg>
