<?xml version="1.0" encoding="utf-8"?>
<!-- Generator: Adobe Illustrator 15.1.0, SVG Export Plug-In . SVG Version: 6.00 Build 0)  -->
<!DOCTYPE svg PUBLIC "-//W3C//DTD SVG 1.1//EN" "http://www.w3.org/Graphics/SVG/1.1/DTD/svg11.dtd">
<svg version="1.1" id="Layer_1" xmlns="http://www.w3.org/2000/svg" xmlns:xlink="http://www.w3.org/1999/xlink" x="0px" y="0px"
	 width="1000px" height="1000px" viewBox="0 0 1000 1000" enable-background="new 0 0 1000 1000" xml:space="preserve">
<g>
	<path d="M733.023,424.711C619,179.359,559.742,86.195,373.43,90.039c-66.344,1.367-50.406-48.047-100.992-29.297
		c-50.562,18.766-7.18,46.203-58.891,88.633C68.414,268.492,81.781,378.703,149.094,641.359
		c28.375,110.617-68.359,116.055-30.078,223.305c27.93,78.203,233.93,110.914,451.273,30.281
		c217.336-80.641,354.531-240.719,326.586-318.898C858.586,468.805,781.062,528.008,733.023,424.711z M546.695,828.867
		c-194.102,72.023-353.648,29.648-360.383,10.828c-11.609-32.477,62.664-140.805,284.578-223.148
		c221.922-82.344,345.766-51.805,358.711-15.539C837.25,622.43,740.812,756.852,546.695,828.867z M484.312,654.133
		c-101.484,37.656-172.016,80.734-217.641,119.516c32.109,29.172,92.305,36.297,152.297,14.039
		c76.375-28.328,123.266-93.367,104.719-145.273c-0.219-0.625-0.547-1.18-0.781-1.797
		C510.375,644.75,497.531,649.227,484.312,654.133z"/>
</g>
</svg>
