<?xml version="1.0" encoding="utf-8"?>
<!-- Generator: Adobe Illustrator 15.1.0, SVG Export Plug-In . SVG Version: 6.00 Build 0)  -->
<!DOCTYPE svg PUBLIC "-//W3C//DTD SVG 1.1//EN" "http://www.w3.org/Graphics/SVG/1.1/DTD/svg11.dtd">
<svg version="1.1" id="Layer_1" xmlns="http://www.w3.org/2000/svg" xmlns:xlink="http://www.w3.org/1999/xlink" x="0px" y="0px"
	 width="1000px" height="1000px" viewBox="0 0 1000 1000" enable-background="new 0 0 1000 1000" xml:space="preserve">
<g>
	<path d="M848.867,250.062c0-50-49.766-50-49.766-50H201.836c0,0-49.766,0-49.766,50v50h696.797V250.062z M699.562,100.062H301.375
		c0,0-49.766,0-49.766,50h497.719C749.328,100.062,699.562,100.062,699.562,100.062z M948.406,300.062
		c-29.453-29.594-29.453-29.594-29.453-29.594v79.594H81.984v-79.594c0,0,0,0-29.453,29.594S1.969,337.602,13.828,400.102
		c11.797,62.258,68.914,403.75,77.406,449.969c9.32,50.656,60.836,49.992,60.836,49.992h696.797c0,0,51.508,0.664,60.828-49.992
		c8.492-46.219,65.594-387.711,77.414-449.969C998.961,337.602,977.859,329.656,948.406,300.062z M699.539,570.062
		c0,0,0,50-49.766,50H351.156c-49.766,0-49.766-50-49.766-50v-100h69.68v80h258.656v-80h69.812V570.062z"/>
</g>
</svg>
