<?xml version="1.0" encoding="utf-8"?>
<!-- Generator: Adobe Illustrator 15.1.0, SVG Export Plug-In . SVG Version: 6.00 Build 0)  -->
<!DOCTYPE svg PUBLIC "-//W3C//DTD SVG 1.1//EN" "http://www.w3.org/Graphics/SVG/1.1/DTD/svg11.dtd">
<svg version="1.1" id="Layer_1" xmlns="http://www.w3.org/2000/svg" xmlns:xlink="http://www.w3.org/1999/xlink" x="0px" y="0px"
	 width="1000px" height="1000px" viewBox="0 0 1000 1000" enable-background="new 0 0 1000 1000" xml:space="preserve">
<g>
	<path d="M277.953,991.922c-65.742,0-127.266-27.891-171.703-72.328C20.156,833.5-3.844,683.211,116.859,562.508
		c70.719-70.719,354-353.992,495.406-495.414c50.195-50.203,114.102-69.578,175.273-53.195
		c60.078,16.094,109.32,65.312,125.414,125.391c16.383,61.203-2.992,125.086-53.188,175.281L386,788.344
		c-27.055,27.055-57.602,43.07-88.32,46.312c-30.414,3.203-59.453-6.602-79.766-26.914
		c-36.859-36.836-42.109-106.195,19.156-167.445l332.773-332.781c13.672-13.672,35.82-13.672,49.492,0
		c13.672,13.656,13.672,35.828,0,49.492L286.562,689.797c-28.766,28.75-31.406,56.203-19.156,68.453
		c5.367,5.375,13.516,7.797,22.906,6.797c14.414-1.523,30.82-10.844,46.195-26.188l473.766-473.781
		c32.5-32.508,44.961-70.742,35.062-107.664c-9.75-36.367-39.531-66.148-75.898-75.898c-36.914-9.898-75.156,2.562-107.68,35.07
		C520.352,258.008,237.07,541.297,166.352,612c-92.305,92.305-70.195,198.5-10.609,258.109
		c59.594,59.586,165.781,81.695,258.109-10.609l495.406-495.414c13.672-13.672,35.82-13.672,49.492,0
		c13.672,13.664,13.672,35.828,0,49.492L463.344,908.992C404.945,967.391,339.594,991.922,277.953,991.922z"/>
</g>
</svg>
