<?xml version="1.0" encoding="utf-8"?>
<!-- Generator: Adobe Illustrator 15.1.0, SVG Export Plug-In . SVG Version: 6.00 Build 0)  -->
<!DOCTYPE svg PUBLIC "-//W3C//DTD SVG 1.1//EN" "http://www.w3.org/Graphics/SVG/1.1/DTD/svg11.dtd">
<svg version="1.1" id="Layer_1" xmlns="http://www.w3.org/2000/svg" xmlns:xlink="http://www.w3.org/1999/xlink" x="0px" y="0px"
	 width="1000px" height="1000px" viewBox="0 0 1000 1000" enable-background="new 0 0 1000 1000" xml:space="preserve">
<path d="M561.773,90.062c-222.281,0-402.992,178.062-408.438,399.758H30.469l183.914,205l183.914-205H255.516
	c5.398-165.078,140.398-297.258,306.258-297.258c169.289,0,306.523,137.672,306.523,307.5c0,169.836-137.234,307.5-306.523,307.5
	c-67.891,0-130.586-22.172-181.375-59.656l-70.281,75.203c69.383,54.469,156.734,86.953,251.656,86.953
	c225.727,0,408.695-183.547,408.695-410C970.469,273.625,787.5,90.062,561.773,90.062z M525.445,280.062V514.57l150.273,150.242
	l49.492-49.492L595.469,485.562v-205.5H525.445z"/>
</svg>
