<?xml version="1.0" encoding="utf-8"?>
<!-- Generator: Adobe Illustrator 15.1.0, SVG Export Plug-In . SVG Version: 6.00 Build 0)  -->
<!DOCTYPE svg PUBLIC "-//W3C//DTD SVG 1.1//EN" "http://www.w3.org/Graphics/SVG/1.1/DTD/svg11.dtd">
<svg version="1.1" id="Layer_1" xmlns="http://www.w3.org/2000/svg" xmlns:xlink="http://www.w3.org/1999/xlink" x="0px" y="0px"
	 width="1000px" height="1000px" viewBox="0 0 1000 1000" enable-background="new 0 0 1000 1000" xml:space="preserve">
<path d="M768.867,500.062c0-138.281,63.852-216,113.852-216c18.219,0,65.75,0,65.75,0c-33.406-52.953-61.039-84.008-182.883-84.008
	H265.188c-186.719,0-266.719,172.07-266.719,300.008s80,300,266.719,300h500.398c121.844,0,149.477-31.047,182.883-84
	c0,0-15.75,0-65.75,0S768.867,638.328,768.867,500.062z M538.039,526.609c-18.836,23.867-79.055,79.75-97.062,96.312
	c-78.438,72.141-83.68,72.141-89.758,72.141h-3.672l-8.992-4.641l-1.992-6.273c-2.516-8.289-2.828-9.352,38.523-84.508
	c11.328-20.57,25.836-46.938,33.039-61.484c-6.797-2.469-15.797-5.469-23.164-7.922c-49.375-16.453-63.367-22.484-67.812-33.586
	c-3.438-8.633,1.742-16.273,3.68-19.141c13.641-20.156,71.586-74.352,95.852-96.727c82.164-75.719,88.242-75.719,94.117-75.719
	h4.555l3.977,2.57c12.852,8.578,6.68,20.469-6.844,46.547c-8.102,15.617-19.141,35.805-29.812,55.336
	c-9.844,18-21.383,39.125-27.969,52.016c4.914,1.68,10.672,3.578,15.828,5.273c56.172,18.469,71.828,25.367,75.031,38.773
	C547.508,513.727,542.906,520.438,538.039,526.609z M942.18,396.438h-37.422c-27.953,0-55.297,37.719-55.297,99
	c0,61.266,27.344,99,55.297,99h37.422c27.945,0,56.289-37.734,56.289-99C998.469,434.156,970.125,396.438,942.18,396.438z"/>
</svg>
