<?xml version="1.0" encoding="utf-8"?>
<!-- Generator: Adobe Illustrator 15.1.0, SVG Export Plug-In . SVG Version: 6.00 Build 0)  -->
<!DOCTYPE svg PUBLIC "-//W3C//DTD SVG 1.1//EN" "http://www.w3.org/Graphics/SVG/1.1/DTD/svg11.dtd">
<svg version="1.1" id="Layer_1" xmlns="http://www.w3.org/2000/svg" xmlns:xlink="http://www.w3.org/1999/xlink" x="0px" y="0px"
	 width="1000px" height="1000px" viewBox="0 0 1000 1000" enable-background="new 0 0 1000 1000" xml:space="preserve">
<g>
	<path d="M500.445,40.062c-254.039,0-459.977,205.961-459.977,460c0,254.062,205.938,460,459.977,460
		c254.062,0,460.023-205.938,460.023-460C960.469,246.023,754.508,40.062,500.445,40.062z M748.008,252.633l-0.117-0.109
		C747.93,252.562,747.969,252.594,748.008,252.633z M150.469,500.062c0-193.297,156.695-350,349.977-350
		c84.047,0,161.156,29.648,221.508,79.023L229.492,721.547C180.117,661.219,150.469,584.109,150.469,500.062z M252.93,747.492
		l0.094,0.109C252.984,747.562,252.969,747.539,252.93,747.492z M500.445,850.062c-84.039,0-161.133-29.648-221.461-79.008
		l492.461-492.477c49.375,60.336,79.023,137.445,79.023,221.484C850.469,693.367,693.766,850.062,500.445,850.062z"/>
</g>
</svg>
