<?xml version="1.0" encoding="utf-8"?>
<!-- Generator: Adobe Illustrator 15.1.0, SVG Export Plug-In . SVG Version: 6.00 Build 0)  -->
<!DOCTYPE svg PUBLIC "-//W3C//DTD SVG 1.1//EN" "http://www.w3.org/Graphics/SVG/1.1/DTD/svg11.dtd">
<svg version="1.1" id="Layer_1" xmlns="http://www.w3.org/2000/svg" xmlns:xlink="http://www.w3.org/1999/xlink" x="0px" y="0px"
	 width="1000px" height="1000px" viewBox="0 0 1000 1000" enable-background="new 0 0 1000 1000" xml:space="preserve">
<g>
	<path d="M388.484,613.578l-200.039-80.016v67.695l200.039,80.023V613.578z M388.484,405.891l-200.039-80.016v67.695l200.039,80.008
		V405.891z M926.5,58.656c-13.734-9.297-31.188-11.18-46.594-5.016L498.469,206.219L117.031,53.641
		c-15.406-6.164-32.859-4.281-46.602,5.016c-13.727,9.297-21.961,24.812-21.961,41.406v640c0,20.453,12.438,38.828,31.414,46.43
		l399.148,159.648c0,0,8.188,2.641,9.727,2.953c3.211,0.625,6.461,0.969,9.711,0.969s6.492-0.344,9.703-0.969
		c1.531-0.312,9.758-2.969,9.758-2.969l399.109-159.633c18.984-7.602,31.43-25.977,31.43-46.43v-640
		C948.469,83.469,940.234,67.953,926.5,58.656z M448.469,847.766l-320-127.992V159.375l320,128.016V847.766z M868.469,719.773
		l-320,127.992V287.391l320-128.016V719.773z M808.484,533.562l-200.039,80.016v67.703l200.039-80.023V533.562z M808.484,325.875
		l-200.039,80.016v67.688l200.039-80.008V325.875z"/>
</g>
</svg>
