<?xml version="1.0" encoding="utf-8"?>
<!-- Generator: Adobe Illustrator 15.1.0, SVG Export Plug-In . SVG Version: 6.00 Build 0)  -->
<!DOCTYPE svg PUBLIC "-//W3C//DTD SVG 1.1//EN" "http://www.w3.org/Graphics/SVG/1.1/DTD/svg11.dtd">
<svg version="1.1" id="Layer_1" xmlns="http://www.w3.org/2000/svg" xmlns:xlink="http://www.w3.org/1999/xlink" x="0px" y="0px"
	 width="1000px" height="1000px" viewBox="0 0 1000 1000" enable-background="new 0 0 1000 1000" xml:space="preserve">
<g>
	<path d="M500.477,703.062c-54.656,0-98.992,44.773-98.992,100s44.336,100,98.992,100c54.68,0,98.992-44.773,98.992-100
		S555.156,703.062,500.477,703.062z M290.477,590.938l70,70.703c77.312-78.109,202.688-78.102,280.008,0l69.992-70.703
		C594.5,473.773,406.453,473.773,290.477,590.938z M150.477,449.508l69.992,70.719c154.641-156.219,405.359-156.219,560,0
		l70.008-70.719C657.188,254.258,343.766,254.258,150.477,449.508z M10.469,308.086l69.984,70.711
		c231.969-234.305,608.062-234.305,840.023,0l69.992-70.703C719.852,34.727,281.102,34.727,10.469,308.086z"/>
</g>
</svg>
