<?xml version="1.0" encoding="utf-8"?>
<!-- Generator: Adobe Illustrator 15.1.0, SVG Export Plug-In . SVG Version: 6.00 Build 0)  -->
<!DOCTYPE svg PUBLIC "-//W3C//DTD SVG 1.1//EN" "http://www.w3.org/Graphics/SVG/1.1/DTD/svg11.dtd">
<svg version="1.1" id="Layer_1" xmlns="http://www.w3.org/2000/svg" xmlns:xlink="http://www.w3.org/1999/xlink" x="0px" y="0px"
	 width="1000px" height="1000px" viewBox="0 0 1000 1000" enable-background="new 0 0 1000 1000" xml:space="preserve">
<path d="M898.461,100.055H98.477c-55,0-100,45-100,100v600.008c0,55,45,100,100,100h799.984c55,0,100-45,100-100V200.055
	C998.461,145.055,953.461,100.055,898.461,100.055z M228.477,193.562c20.719,0,37.5,16.328,37.5,36.492s-16.781,36.492-37.5,36.492
	c-20.727,0-37.5-16.328-37.5-36.492S207.75,193.562,228.477,193.562z M90.977,230.055c0-20.164,16.773-36.492,37.5-36.492
	c20.719,0,37.5,16.328,37.5,36.492s-16.781,36.492-37.5,36.492C107.75,266.547,90.977,250.219,90.977,230.055z M899.461,800.062
	H97.477V340.055h801.984V800.062z M899.461,260.055H298.477v-60h600.984V260.055z"/>
</svg>
