<?xml version="1.0" encoding="utf-8"?>
<!-- Generator: Adobe Illustrator 15.1.0, SVG Export Plug-In . SVG Version: 6.00 Build 0)  -->
<!DOCTYPE svg PUBLIC "-//W3C//DTD SVG 1.1//EN" "http://www.w3.org/Graphics/SVG/1.1/DTD/svg11.dtd">
<svg version="1.1" id="Layer_1" xmlns="http://www.w3.org/2000/svg" xmlns:xlink="http://www.w3.org/1999/xlink" x="0px" y="0px"
	 width="1000px" height="1000px" viewBox="0 0 1000 1000" enable-background="new 0 0 1000 1000" xml:space="preserve">
<g>
	<path d="M850.469,150.062h-45v100h-160v-100h-290v100h-160v-100h-45c-55,0-100,45-100,100v600c0,55,45,100,100,100h700
		c55,0,100-45,100-100v-600C950.469,195.062,905.469,150.062,850.469,150.062z M850.469,850.062h-700v-400h700V850.062z
		 M310.469,50.062h-70v170h70V50.062z M760.469,50.062h-70v170h70V50.062z"/>
</g>
</svg>
