<?xml version="1.0" encoding="utf-8"?>
<!-- Generator: Adobe Illustrator 15.1.0, SVG Export Plug-In . SVG Version: 6.00 Build 0)  -->
<!DOCTYPE svg PUBLIC "-//W3C//DTD SVG 1.1//EN" "http://www.w3.org/Graphics/SVG/1.1/DTD/svg11.dtd">
<svg version="1.1" id="Layer_1" xmlns="http://www.w3.org/2000/svg" xmlns:xlink="http://www.w3.org/1999/xlink" x="0px" y="0px"
	 width="1000px" height="1000px" viewBox="0 0 1000 1000" enable-background="new 0 0 1000 1000" xml:space="preserve">
<g>
	<path d="M500.469,400.062c-82.852,0-150,67.18-150,150c0,82.852,67.148,150,150,150c82.828,0,150-67.148,150-150
		C650.469,467.242,583.297,400.062,500.469,400.062z M900.469,250.062h-120c-16.508,0-34.281-12.805-39.492-28.453l-31.016-93.086
		c-5.234-15.656-22.992-28.461-39.492-28.461h-340c-16.508,0-34.281,12.805-39.492,28.461l-31.016,93.086
		c-5.234,15.648-22.992,28.453-39.492,28.453h-120c-55,0-100,45-100,100v450c0,55,45,100,100,100h800c55,0,100-45,100-100v-450
		C1000.469,295.062,955.469,250.062,900.469,250.062z M500.469,800.062c-138.07,0-250-111.93-250-250c0-138.062,111.93-250,250-250
		c138.047,0,250,111.938,250,250C750.469,688.133,638.516,800.062,500.469,800.062z M865.469,419.992c-19.328,0-35-15.656-35-35
		c0-19.32,15.672-35,35-35c19.336,0,35,15.68,35,35C900.469,404.336,884.805,419.992,865.469,419.992z"/>
</g>
</svg>
