<?xml version="1.0" encoding="utf-8"?>
<!-- Generator: Adobe Illustrator 15.1.0, SVG Export Plug-In . SVG Version: 6.00 Build 0)  -->
<!DOCTYPE svg PUBLIC "-//W3C//DTD SVG 1.1//EN" "http://www.w3.org/Graphics/SVG/1.1/DTD/svg11.dtd">
<svg version="1.1" id="Layer_1" xmlns="http://www.w3.org/2000/svg" xmlns:xlink="http://www.w3.org/1999/xlink" x="0px" y="0px"
	 width="1000px" height="1000px" viewBox="0 0 1000 1000" enable-background="new 0 0 1000 1000" xml:space="preserve">
<g>
	<path d="M500.445,70.062c-237.469,0-429.977,192.531-429.977,430c0,237.484,192.508,430,429.977,430
		c237.492,0,430.023-192.516,430.023-430C930.469,262.594,737.938,70.062,500.445,70.062z M535.469,848.312v-193.25h-70.023v193.25
		c-165.328-16.406-296.805-147.891-313.227-313.25h193.234v-70.023H152.219c16.422-165.328,147.898-296.812,313.227-313.227v193.25
		h70.023v-193.25c165.359,16.422,296.828,147.898,313.25,313.227H655.453v70.023h193.266
		C832.297,700.422,700.828,831.883,535.469,848.312z"/>
</g>
</svg>
