<?xml version="1.0" encoding="utf-8"?>
<!-- Generator: Adobe Illustrator 15.1.0, SVG Export Plug-In . SVG Version: 6.00 Build 0)  -->
<!DOCTYPE svg PUBLIC "-//W3C//DTD SVG 1.1//EN" "http://www.w3.org/Graphics/SVG/1.1/DTD/svg11.dtd">
<svg version="1.1" id="Layer_1" xmlns="http://www.w3.org/2000/svg" xmlns:xlink="http://www.w3.org/1999/xlink" x="0px" y="0px"
	 width="1000px" height="1000px" viewBox="0 0 1000 1000" enable-background="new 0 0 1000 1000" xml:space="preserve">
<g>
	<path d="M290.469,610.062v-310h-190c-55,0-100,45-100,100v300c0,55,45,100,100,100h50v150l150-150h250c55,0,100-45,100-100v-91.016
		c-3.227,0.672-6.594,1.016-10,1.016H290.469z M900.469,50.062h-450c-55,0-100,45-100,100v400h350l150,150v-150h50
		c55,0,100-45,100-100v-300C1000.469,95.062,955.469,50.062,900.469,50.062z"/>
</g>
</svg>
