<?xml version="1.0" encoding="utf-8"?>
<!-- Generator: Adobe Illustrator 15.1.0, SVG Export Plug-In . SVG Version: 6.00 Build 0)  -->
<!DOCTYPE svg PUBLIC "-//W3C//DTD SVG 1.1//EN" "http://www.w3.org/Graphics/SVG/1.1/DTD/svg11.dtd">
<svg version="1.1" id="Layer_1" xmlns="http://www.w3.org/2000/svg" xmlns:xlink="http://www.w3.org/1999/xlink" x="0px" y="0px"
	 width="1000px" height="1000px" viewBox="0 0 1000 1000" enable-background="new 0 0 1000 1000" xml:space="preserve">
<g>
	<path d="M717.898,657.633l-137.883-157.57l137.883-157.578c23.43-23.43,23.43-61.422,0-84.852
		c-23.445-23.43-61.438-23.43-84.867,0.008L500.469,409.156l-132.57-151.516c-23.43-23.438-61.414-23.438-84.867-0.008
		c-23.422,23.43-23.422,61.422,0,84.852l137.883,157.578l-137.883,157.57c-23.422,23.438-23.422,61.422-0.008,84.852
		c23.438,23.438,61.43,23.438,84.875,0l132.57-151.508l132.562,151.508c23.453,23.438,61.438,23.438,84.875,0
		C741.328,719.055,741.328,681.07,717.898,657.633z"/>
</g>
</svg>
