<?xml version="1.0" encoding="utf-8"?>
<!-- Generator: Adobe Illustrator 15.1.0, SVG Export Plug-In . SVG Version: 6.00 Build 0)  -->
<!DOCTYPE svg PUBLIC "-//W3C//DTD SVG 1.1//EN" "http://www.w3.org/Graphics/SVG/1.1/DTD/svg11.dtd">
<svg version="1.1" id="Layer_1" xmlns="http://www.w3.org/2000/svg" xmlns:xlink="http://www.w3.org/1999/xlink" x="0px" y="0px"
	 width="1000px" height="1000px" viewBox="0 0 1000 1000" enable-background="new 0 0 1000 1000" xml:space="preserve">
<g>
	<path d="M874.711,773.438L685.766,584.492c28.484-46.805,44.891-101.773,44.891-160.578c0-170.828-148.023-318.852-318.875-318.852
		c-170.82,0-309.312,138.5-309.312,309.344c0,170.836,148.016,318.844,318.836,318.844c56.805,0,110-15.383,155.742-42.102
		l189.969,189.977c18.594,18.594,48.734,18.594,67.305,0l47.117-47.109C900.031,815.422,893.297,792.016,874.711,773.438z
		 M197.656,414.406c0-118.281,95.875-214.164,214.125-214.164c118.297,0,223.695,105.391,223.695,223.672
		s-95.891,214.164-214.172,214.164C303.047,638.078,197.656,532.688,197.656,414.406z"/>
</g>
</svg>
