<?xml version="1.0" encoding="utf-8"?>
<!-- Generator: Adobe Illustrator 15.1.0, SVG Export Plug-In . SVG Version: 6.00 Build 0)  -->
<!DOCTYPE svg PUBLIC "-//W3C//DTD SVG 1.1//EN" "http://www.w3.org/Graphics/SVG/1.1/DTD/svg11.dtd">
<svg version="1.1" id="Layer_1" xmlns="http://www.w3.org/2000/svg" xmlns:xlink="http://www.w3.org/1999/xlink" x="0px" y="0px"
	 width="1000px" height="1000px" viewBox="0 0 1000 1000" enable-background="new 0 0 1000 1000" xml:space="preserve">
<g>
	<path d="M761.109,357.078c-13.789,0-27.281,1.188-40.43,3.398c-32.812-107.25-134.43-185.414-254.781-185.414
		c-146.898,0-265.961,116.406-265.961,260.023c0,12.812,1,25.406,2.836,37.734c-7.055-0.805-14.18-1.352-21.445-1.352
		c-99.883,0-180.859,79.164-180.859,176.797c0,97.641,80.977,176.797,180.859,176.797h579.781
		c132.211,0,239.359-104.766,239.359-234C1000.469,461.844,893.32,357.078,761.109,357.078z"/>
</g>
</svg>
