<?xml version="1.0" encoding="utf-8"?>
<!-- Generator: Adobe Illustrator 15.1.0, SVG Export Plug-In . SVG Version: 6.00 Build 0)  -->
<!DOCTYPE svg PUBLIC "-//W3C//DTD SVG 1.1//EN" "http://www.w3.org/Graphics/SVG/1.1/DTD/svg11.dtd">
<svg version="1.1" id="Layer_1" xmlns="http://www.w3.org/2000/svg" xmlns:xlink="http://www.w3.org/1999/xlink" x="0px" y="0px"
	 width="1000px" height="1000px" viewBox="0 0 1000 1000" enable-background="new 0 0 1000 1000" xml:space="preserve">
<path d="M379.086,213.016c-18.367-17.273-43.164-17.273-61.539,0L-1.531,500.062l319.078,287.031
	c18.375,17.289,43.172,17.289,61.539,0c18.383-17.297,18.383-45.336,0-62.625L131.359,500.062l247.727-224.406
	C397.469,258.367,397.469,230.328,379.086,213.016z M679.422,213.016c-18.391-17.273-43.172-17.273-61.555,0
	c-18.383,17.312-17.375,45.352,1.008,62.641l246.719,224.406L618.875,724.469c-18.383,17.289-19.391,45.328-1.008,62.625
	c18.383,17.289,43.164,17.289,61.555,0l319.047-287.031L679.422,213.016z"/>
</svg>
