<?xml version="1.0" encoding="utf-8"?>
<!-- Generator: Adobe Illustrator 15.1.0, SVG Export Plug-In . SVG Version: 6.00 Build 0)  -->
<!DOCTYPE svg PUBLIC "-//W3C//DTD SVG 1.1//EN" "http://www.w3.org/Graphics/SVG/1.1/DTD/svg11.dtd">
<svg version="1.1" id="Layer_1" xmlns="http://www.w3.org/2000/svg" xmlns:xlink="http://www.w3.org/1999/xlink" x="0px" y="0px"
	 width="1000px" height="1000px" viewBox="0 0 1000 1000" enable-background="new 0 0 1000 1000" xml:space="preserve">
<g>
	<path d="M494.047,20.109C228.984,23.656,16.969,241.406,20.516,506.477c3.531,265.07,221.297,477.086,486.367,473.555
		c265.07-3.562,477.086-221.312,473.547-486.383C976.883,228.578,759.109,16.562,494.047,20.109z M505.531,878.969
		c-209.266,2.797-381.172-164.562-383.984-373.852c-2.789-209.258,164.594-381.172,373.859-383.961
		c209.266-2.805,381.188,164.57,383.977,373.836C882.172,704.266,714.805,876.18,505.531,878.969z M273.102,725.297
		c0,0,228.445-31.383,325.914-128.844c97.438-97.445,128.828-325.883,128.828-325.883s-228.438,31.383-325.883,128.828
		C304.5,496.852,273.102,725.297,273.102,725.297z M451.219,448.664c40.953-40.977,119.297-70.047,186.469-88.102
		c-18.094,67.055-47.289,145.977-87.961,186.633c-27.188,27.211-71.305,27.227-98.508,0C424,519.984,424,475.875,451.219,448.664z"
		/>
</g>
</svg>
