<?xml version="1.0" encoding="utf-8"?>
<!-- Generator: Adobe Illustrator 15.1.0, SVG Export Plug-In . SVG Version: 6.00 Build 0)  -->
<!DOCTYPE svg PUBLIC "-//W3C//DTD SVG 1.1//EN" "http://www.w3.org/Graphics/SVG/1.1/DTD/svg11.dtd">
<svg version="1.1" id="Layer_1" xmlns="http://www.w3.org/2000/svg" xmlns:xlink="http://www.w3.org/1999/xlink" x="0px" y="0px"
	 width="1000px" height="1000px" viewBox="0 0 1000 1000" enable-background="new 0 0 1000 1000" xml:space="preserve">
<g>
	<path d="M900.469,100.062h-800c-55,0-100,45-100,100v600c0,55,45,100,100,100h800c55,0,100-45,100-100v-600
		C1000.469,145.062,955.469,100.062,900.469,100.062z M900.469,800.062h-800v-600h800V800.062z M450.469,605.062h-250v90h250
		V605.062z M450.469,455.062h-250v90h250V455.062z M450.469,305.062h-250v90h250V305.062z M795.469,625.062
		c0,0-84.992-22.242-84.992-65.891c0-41.609,54.992-59.109,54.992-144.109c0-69.031-20.969-110-90-110s-90,40.969-90,110
		c0,85,54.984,102.5,54.984,144.109c0,43.648-84.984,65.891-84.984,65.891c-5,0-5,70-5,70h250
		C800.469,695.062,800.469,625.062,795.469,625.062z"/>
</g>
</svg>
