<?xml version="1.0" encoding="utf-8"?>
<!-- Generator: Adobe Illustrator 15.1.0, SVG Export Plug-In . SVG Version: 6.00 Build 0)  -->
<!DOCTYPE svg PUBLIC "-//W3C//DTD SVG 1.1//EN" "http://www.w3.org/Graphics/SVG/1.1/DTD/svg11.dtd">
<svg version="1.1" id="Layer_1" xmlns="http://www.w3.org/2000/svg" xmlns:xlink="http://www.w3.org/1999/xlink" x="0px" y="0px"
	 width="1000px" height="1000px" viewBox="0 0 1000 1000" enable-background="new 0 0 1000 1000" xml:space="preserve">
<g>
	<path d="M1000.469,925.062c0,0-1.977-182.891-13.539-201.852c-17.203-28.234-57.281-47.633-131.695-77.664
		c-74.164-29.953-97.875-55.203-97.875-109.312c0-32.469,22.641-21.852,32.602-81.312c4.117-24.68,24.117-0.406,27.945-56.719
		c0-22.453-10.914-28.031-10.914-28.031s5.547-33.203,7.711-58.766c2.695-31.859-16.617-114.125-119.547-114.125
		c-102.953,0-122.25,82.266-119.555,114.125c2.172,25.562,7.695,58.766,7.695,58.766s-10.898,5.578-10.898,28.031
		c3.828,56.312,23.812,32.039,27.953,56.719c9.938,59.461,32.594,48.844,32.594,81.312c0,36.789-11.016,60.234-41.367,80.906
		c162.031,78.336,183.75,94.312,183.75,164.344v143.578H1000.469z M511.641,672.742c-98.906-39.945-130.508-73.617-130.508-145.734
		c0-43.297,30.195-29.156,43.453-108.438c5.492-32.891,32.172-0.539,37.266-75.625c0-29.922-14.547-37.359-14.547-37.359
		s7.398-44.281,10.289-78.359c3.594-42.469-22.148-152.164-159.414-152.164c-137.242,0-163.008,109.695-159.391,152.164
		c2.891,34.078,10.273,78.359,10.273,78.359s-14.555,7.438-14.555,37.359c5.117,75.086,31.781,42.734,37.289,75.625
		c13.258,79.281,43.453,65.141,43.453,108.438c0,72.117-31.617,105.789-130.508,145.734c-30.133,12.164-84.273,31.016-84.273,76.359
		v175.961h694.688c0,0,0-104.094,0-131.938C695.156,751.766,610.836,712.797,511.641,672.742z"/>
</g>
</svg>
