<?xml version="1.0" encoding="utf-8"?>
<!-- Generator: Adobe Illustrator 15.1.0, SVG Export Plug-In . SVG Version: 6.00 Build 0)  -->
<!DOCTYPE svg PUBLIC "-//W3C//DTD SVG 1.1//EN" "http://www.w3.org/Graphics/SVG/1.1/DTD/svg11.dtd">
<svg version="1.1" id="Layer_1" xmlns="http://www.w3.org/2000/svg" xmlns:xlink="http://www.w3.org/1999/xlink" x="0px" y="0px"
	 width="1000px" height="1000px" viewBox="0 0 1000 1000" enable-background="new 0 0 1000 1000" xml:space="preserve">
<g>
	<path d="M766.484,722.453C643.219,677.531,603.828,639.641,603.828,558.5c0-48.703,37.633-32.789,54.156-121.992
		c6.859-36.992,40.102-0.594,46.469-85.07c0-33.664-18.148-42.031-18.148-42.031s9.219-49.812,12.836-88.156
		c4.469-47.773-27.602-171.188-198.672-171.188c-171.078,0-203.164,123.414-198.672,171.188
		c3.609,38.344,12.828,88.156,12.828,88.156s-18.141,8.367-18.141,42.031c6.344,84.477,39.586,48.078,46.445,85.07
		c16.539,89.203,54.156,73.289,54.156,121.992c0,81.141-39.375,119.031-162.633,163.953
		C110.797,767.531,30.469,813.469,30.469,844.797c0,31.305,0,105.266,0,105.266h470h470c0,0,0-73.961,0-105.266
		C970.469,813.469,890.133,767.531,766.484,722.453z"/>
</g>
</svg>
