<?xml version="1.0" encoding="utf-8"?>
<!-- Generator: Adobe Illustrator 15.1.0, SVG Export Plug-In . SVG Version: 6.00 Build 0)  -->
<!DOCTYPE svg PUBLIC "-//W3C//DTD SVG 1.1//EN" "http://www.w3.org/Graphics/SVG/1.1/DTD/svg11.dtd">
<svg version="1.1" id="Layer_1" xmlns="http://www.w3.org/2000/svg" xmlns:xlink="http://www.w3.org/1999/xlink" x="0px" y="0px"
	 width="1000px" height="1000px" viewBox="0 0 1000 1000" enable-background="new 0 0 1000 1000" xml:space="preserve">
<g>
	<path d="M765.484,713.453c-123.266-44.922-162.656-82.812-162.656-163.945c0-48.711,37.633-32.805,54.156-122
		c6.859-36.992,40.102-0.594,46.469-85.07c0-33.664-18.148-42.031-18.148-42.031s9.219-49.812,12.836-88.156
		c4.469-47.773-27.602-171.188-198.672-171.188c-171.078,0-203.164,123.414-198.672,171.188
		c3.609,38.344,12.828,88.156,12.828,88.156s-18.141,8.367-18.141,42.031c6.344,84.477,39.586,48.078,46.445,85.07
		c16.539,89.195,54.156,73.289,54.156,122c0,81.133-39.375,119.023-162.633,163.945C109.797,758.531,29.469,804.469,29.469,835.797
		c0,31.305,0,105.266,0,105.266h470h470c0,0,0-73.961,0-105.266C969.469,804.469,889.133,758.531,765.484,713.453z"/>
</g>
</svg>
