<?xml version="1.0" encoding="utf-8"?>
<!-- Generator: Adobe Illustrator 15.1.0, SVG Export Plug-In . SVG Version: 6.00 Build 0)  -->
<!DOCTYPE svg PUBLIC "-//W3C//DTD SVG 1.1//EN" "http://www.w3.org/Graphics/SVG/1.1/DTD/svg11.dtd">
<svg version="1.1" id="Layer_1" xmlns="http://www.w3.org/2000/svg" xmlns:xlink="http://www.w3.org/1999/xlink" x="0px" y="0px"
	 width="1000px" height="1000px" viewBox="0 0 1000 1000" enable-background="new 0 0 1000 1000" xml:space="preserve">
<g>
	<path d="M492.047,20.109C226.969,23.641,14.961,241.398,18.516,506.477c3.531,265.055,221.289,477.086,486.367,473.539
		c265.055-3.539,477.086-221.297,473.539-486.375C974.883,228.562,757.094,16.555,492.047,20.109z M503.531,878.977
		c-209.273,2.789-381.188-164.586-383.984-373.867c-2.789-209.258,164.594-381.172,373.852-383.969
		c209.273-2.789,381.172,164.578,383.984,373.852C880.172,704.266,712.797,876.164,503.531,878.977z M381.016,581.375
		c-20.273,0-35.625-7.375-46.016-22.188c-10.406-14.781-15.586-34.484-15.586-59.141c0-54.195,20.523-81.305,61.602-81.305
		c8.203,0,17.109,2.734,26.68,8.203c9.57,5.492,17.656,15.078,24.242,28.75l61.594-32.031
		c-24.625-44.352-65.445-66.539-122.398-66.539c-38.883,0-71.039,12.867-96.484,38.609c-25.469,25.742-38.227,60.508-38.227,104.312
		c0,44.906,12.625,79.969,37.797,105.156c25.172,25.203,58.344,37.781,99.414,37.781c25.727,0,49.273-6.453,70.625-19.297
		c21.352-12.875,38.07-30.531,50.117-52.992l-56.703-28.75C426.719,568.234,407.828,581.375,381.016,581.375z M646.328,581.375
		c-20.273,0-35.609-7.375-46-22.188c-10.406-14.781-15.602-34.484-15.602-59.141c0-54.195,20.523-81.305,61.602-81.305
		c8.75,0,17.93,2.734,27.5,8.203c9.594,5.492,17.672,15.078,24.258,28.75l60.758-32.031
		c-24.094-44.352-64.609-66.539-121.562-66.539c-38.883,0-71.047,12.867-96.516,38.609c-25.453,25.742-38.172,60.508-38.172,104.312
		c0,44.906,12.445,79.969,37.367,105.156c24.898,25.203,58.18,37.781,99.805,37.781c25.172,0,48.453-6.453,69.805-19.297
		c21.352-12.875,38.32-30.531,50.938-52.992l-57.5-28.75C692.047,568.234,673.141,581.375,646.328,581.375z"/>
</g>
</svg>
