<?xml version="1.0" encoding="utf-8"?>
<!-- Generator: Adobe Illustrator 15.1.0, SVG Export Plug-In . SVG Version: 6.00 Build 0)  -->
<!DOCTYPE svg PUBLIC "-//W3C//DTD SVG 1.1//EN" "http://www.w3.org/Graphics/SVG/1.1/DTD/svg11.dtd">
<svg version="1.1" id="Layer_1" xmlns="http://www.w3.org/2000/svg" xmlns:xlink="http://www.w3.org/1999/xlink" x="0px" y="0px"
	 width="1000px" height="1000px" viewBox="0 0 1000 1000" enable-background="new 0 0 1000 1000" xml:space="preserve">
<g>
	<path d="M679.508,609.438c63.203-1.672,120.219-35.078,153.773-93.18c52.945-91.742,22.914-202.305-78.984-261.133l-63.906-36.914
		L797.344,32.938L740.391,0.062L533.648,358.078c-16.109-39.734-46.953-75.469-91.617-101.234l-120.883-69.805L133.945,511.258
		l120.875,69.805c44.688,25.781,91.156,34.453,133.734,28.359l-206.562,357.75l56.969,32.891l106.977-185.266l63.906,36.891
		c101.914,58.844,213.242,28.633,266.195-63.086C709.586,730.477,709.789,664.773,679.508,609.438z M724.352,307
		c68.094,39.297,85.547,111.758,48.641,175.664c-36.898,63.945-107.836,84.117-175.922,44.805l-63.109-36.406
		c0.703-1.797,1.352-3.609,1.977-5.391l124.508-215.586L724.352,307z M284.789,529.172l-63.906-36.898l127.266-220.492
		l63.938,36.922c68.094,39.312,85.531,111.773,48.641,175.703C423.805,548.312,352.867,568.5,284.789,529.172z M439.805,799.828
		l-63.922-36.906l124.609-215.844c1.172-1.391,2.344-2.75,3.469-4.18l63.148,36.445c68.086,39.297,85.547,111.781,48.648,175.703
		C578.852,818.953,507.891,839.148,439.805,799.828z"/>
</g>
</svg>
