<?xml version="1.0" encoding="utf-8"?>
<!-- Generator: Adobe Illustrator 15.1.0, SVG Export Plug-In . SVG Version: 6.00 Build 0)  -->
<!DOCTYPE svg PUBLIC "-//W3C//DTD SVG 1.1//EN" "http://www.w3.org/Graphics/SVG/1.1/DTD/svg11.dtd">
<svg version="1.1" id="Layer_1" xmlns="http://www.w3.org/2000/svg" xmlns:xlink="http://www.w3.org/1999/xlink" x="0px" y="0px"
	 width="1000px" height="1000px" viewBox="0 0 1000 1000" enable-background="new 0 0 1000 1000" xml:space="preserve">
<g>
	<path d="M800.469,250.062h-150v-150c0-27.5-22.5-50-50-50h-400c-27.5,0-50,22.5-50,50v600c0,27.5,22.5,50,50,50h150v150
		c0,27.5,22.5,50,50,50h400c27.5,0,50-22.5,50-50v-600C850.469,272.562,827.969,250.062,800.469,250.062z M250.469,650.062v-500h300
		v100H399.461c-27.5,0-48.992,21.5-48.992,49v351H250.469z M750.469,850.062h-300v-500h300V850.062z"/>
</g>
</svg>
