<?xml version="1.0" encoding="utf-8"?>
<!-- Generator: Adobe Illustrator 15.1.0, SVG Export Plug-In . SVG Version: 6.00 Build 0)  -->
<!DOCTYPE svg PUBLIC "-//W3C//DTD SVG 1.1//EN" "http://www.w3.org/Graphics/SVG/1.1/DTD/svg11.dtd">
<svg version="1.1" id="Layer_1" xmlns="http://www.w3.org/2000/svg" xmlns:xlink="http://www.w3.org/1999/xlink" x="0px" y="0px"
	 width="1000px" height="1000px" viewBox="0 0 1000 1000" enable-background="new 0 0 1000 1000" xml:space="preserve">
<g>
	<path d="M498.445,40.062c-254.039,0-459.977,205.961-459.977,460c0,254.062,205.938,460,459.977,460
		c254.062,0,460.023-205.938,460.023-460C958.469,246.023,752.508,40.062,498.445,40.062z M498.445,860.062
		c-198.805,0-359.977-161.172-359.977-360s161.172-360,359.977-360c198.852,0,360.023,161.172,360.023,360
		S697.297,860.062,498.445,860.062z M588.469,307.562h-180v204.516h-112.5l202.5,190.484l202.5-190.484h-112.5V307.562z"/>
</g>
</svg>
