<?xml version="1.0" encoding="utf-8"?>
<!-- Generator: Adobe Illustrator 15.1.0, SVG Export Plug-In . SVG Version: 6.00 Build 0)  -->
<!DOCTYPE svg PUBLIC "-//W3C//DTD SVG 1.1//EN" "http://www.w3.org/Graphics/SVG/1.1/DTD/svg11.dtd">
<svg version="1.1" id="Layer_1" xmlns="http://www.w3.org/2000/svg" xmlns:xlink="http://www.w3.org/1999/xlink" x="0px" y="0px"
	 width="1000px" height="1000px" viewBox="0 0 1000 1000" enable-background="new 0 0 1000 1000" xml:space="preserve">
<g>
	<path d="M770.477,321.07h-150V75.062h-240V321.07h-150l270,253.992L770.477,321.07z M967.453,652.18L808.266,545.062h-98.156
		L880.125,675.5H702.898c-5.078,0-9.688,2.57-11.977,6.633l-40.859,111.758H350.844l-40.859-111.758
		c-2.266-4.062-6.891-6.633-11.969-6.633H120.789l170.039-130.438h-98.188L33.484,652.18c-23.688,14.141-37.852,46.75-31.5,72.453
		l28.062,153.695c6.367,25.703,34.531,46.734,62.578,46.734h815.688c28.047,0,56.203-21.031,62.578-46.734l28.047-153.695
		C1005.32,698.93,991.141,666.32,967.453,652.18z"/>
</g>
</svg>
