<?xml version="1.0" encoding="utf-8"?>
<!-- Generator: Adobe Illustrator 15.1.0, SVG Export Plug-In . SVG Version: 6.00 Build 0)  -->
<!DOCTYPE svg PUBLIC "-//W3C//DTD SVG 1.1//EN" "http://www.w3.org/Graphics/SVG/1.1/DTD/svg11.dtd">
<svg version="1.1" id="Layer_1" xmlns="http://www.w3.org/2000/svg" xmlns:xlink="http://www.w3.org/1999/xlink" x="0px" y="0px"
	 width="1000px" height="1000px" viewBox="0 0 1000 1000" enable-background="new 0 0 1000 1000" xml:space="preserve">
<g>
	<path d="M80.164,264.336c24.414,13.125,362.414,194.688,374.992,201.445c12.586,6.758,28.883,10.023,45.312,10.023
		c16.422,0,32.719-3.266,45.312-10.023c12.578-6.758,350.578-188.32,374.984-201.445c24.43-13.102,47.547-54.273,2.672-54.273H77.5
		C32.656,210.062,55.742,251.234,80.164,264.336z M931.109,364.336c-27.734,14.477-368.344,192.586-385.328,201.453
		c-16.992,8.867-28.891,10.023-45.312,10.023c-16.43,0-28.32-1.156-45.312-10.023C438.172,556.922,97.578,378.812,69.82,364.336
		c-19.523-10.172-19.352,1.773-19.352,10.977c0,9.219,0,366.805,0,366.805c0,20.961,27.922,47.945,49.586,47.945h800.82
		c21.672,0,49.594-26.984,49.594-47.945c0,0,0-357.586,0-366.805C950.469,366.109,950.656,354.164,931.109,364.336z"/>
</g>
</svg>
