<?xml version="1.0" encoding="utf-8"?>
<!-- Generator: Adobe Illustrator 15.1.0, SVG Export Plug-In . SVG Version: 6.00 Build 0)  -->
<!DOCTYPE svg PUBLIC "-//W3C//DTD SVG 1.1//EN" "http://www.w3.org/Graphics/SVG/1.1/DTD/svg11.dtd">
<svg version="1.1" id="Layer_1" xmlns="http://www.w3.org/2000/svg" xmlns:xlink="http://www.w3.org/1999/xlink" x="0px" y="0px"
	 width="1000px" height="1000px" viewBox="0 0 1000 1000" enable-background="new 0 0 1000 1000" xml:space="preserve">
<g>
	<path d="M750.469,790.062h-650v-450h129.742c0,0,34.477-44.844,108.5-100H50.469c-27.617,0-50,22.383-50,50v550
		c0,27.625,22.383,50,50,50h750c27.617,0,50-22.375,50-50v-187.32l-100,82.242V790.062z M668.57,442.555v177.508l331.898-260.039
		L668.57,110.062v156.523c-403.102,0-403.102,398.477-403.102,398.477C379.547,477.648,449.766,442.555,668.57,442.555z"/>
</g>
</svg>
