<?xml version="1.0" encoding="utf-8"?>
<!-- Generator: Adobe Illustrator 15.1.0, SVG Export Plug-In . SVG Version: 6.00 Build 0)  -->
<!DOCTYPE svg PUBLIC "-//W3C//DTD SVG 1.1//EN" "http://www.w3.org/Graphics/SVG/1.1/DTD/svg11.dtd">
<svg version="1.1" id="Layer_1" xmlns="http://www.w3.org/2000/svg" xmlns:xlink="http://www.w3.org/1999/xlink" x="0px" y="0px"
	 width="1000px" height="1000px" viewBox="0 0 1000 1000" enable-background="new 0 0 1000 1000" xml:space="preserve">
<g>
	<path d="M60.469,500.062c0,13.969,13.961,23.969,13.961,23.969l373.125,247.5c28.633,19.102,52.109,5.055,52.109-31.234V259.828
		c0-36.266-23.477-50.328-52.109-31.227L74.43,476.117C74.43,476.117,60.469,486.102,60.469,500.062z M514.258,500.062
		c0,13.969,13.961,23.969,13.961,23.969l360.156,247.5c28.633,19.102,52.094,5.055,52.094-31.234V259.828
		c0-36.266-23.461-50.328-52.094-31.227L528.219,476.117C528.219,476.117,514.258,486.102,514.258,500.062z"/>
</g>
</svg>
