<?xml version="1.0" encoding="utf-8"?>
<!-- Generator: Adobe Illustrator 15.1.0, SVG Export Plug-In . SVG Version: 6.00 Build 0)  -->
<!DOCTYPE svg PUBLIC "-//W3C//DTD SVG 1.1//EN" "http://www.w3.org/Graphics/SVG/1.1/DTD/svg11.dtd">
<svg version="1.1" id="Layer_1" xmlns="http://www.w3.org/2000/svg" xmlns:xlink="http://www.w3.org/1999/xlink" x="0px" y="0px"
	 width="1000px" height="1000px" viewBox="0 0 1000 1000" enable-background="new 0 0 1000 1000" xml:space="preserve">
<g>
	<path d="M926.484,476.102L553.375,228.578c-28.633-19.078-52.109-5.031-52.109,31.234v480.484
		c0,36.273,23.477,50.336,52.109,31.234l373.109-247.516c0,0,13.984-9.984,13.984-23.953
		C940.469,486.102,926.484,476.102,926.484,476.102z M472.711,476.102L112.555,228.578c-28.633-19.078-52.086-5.031-52.086,31.234
		v480.484c0,36.273,23.453,50.336,52.086,31.234l360.156-247.516c0,0,13.969-9.984,13.969-23.953
		C486.68,486.102,472.711,476.102,472.711,476.102z"/>
</g>
</svg>
