<?xml version="1.0" encoding="utf-8"?>
<!-- Generator: Adobe Illustrator 15.1.0, SVG Export Plug-In . SVG Version: 6.00 Build 0)  -->
<!DOCTYPE svg PUBLIC "-//W3C//DTD SVG 1.1//EN" "http://www.w3.org/Graphics/SVG/1.1/DTD/svg11.dtd">
<svg version="1.1" id="Layer_1" xmlns="http://www.w3.org/2000/svg" xmlns:xlink="http://www.w3.org/1999/xlink" x="0px" y="0px"
	 width="1000px" height="1000px" viewBox="0 0 1000 1000" enable-background="new 0 0 1000 1000" xml:space="preserve">
<path d="M857.273,32.031C701.258,20.688,578.367,45.492,473.211,150.648C285.25,338.609,214,479.875,127.641,664.484
	c0,0-40.273,85.297-121.852,265.789c-16.938,37.461,35.898,51.398,48.258,30.531C131.023,830.844,203.602,714.75,203.602,714.75
	c222.242,75.836,347.383-46.43,398.672-85.359c-140.102,9.711-236.914-91.328-236.914-91.328s347.188,6.016,439.664-130.859
	C647.586,394.172,532,329.008,532,329.008s318.242-41.523,340.117-67.422c21.852-25.891,42.203-79.445,40.523-97.578
	C908.383,118.469,1104.617,50,857.273,32.031z"/>
</svg>
