<?xml version="1.0" encoding="utf-8"?>
<!-- Generator: Adobe Illustrator 15.1.0, SVG Export Plug-In . SVG Version: 6.00 Build 0)  -->
<!DOCTYPE svg PUBLIC "-//W3C//DTD SVG 1.1//EN" "http://www.w3.org/Graphics/SVG/1.1/DTD/svg11.dtd">
<svg version="1.1" id="Layer_1" xmlns="http://www.w3.org/2000/svg" xmlns:xlink="http://www.w3.org/1999/xlink" x="0px" y="0px"
	 width="1000px" height="1000px" viewBox="0 0 1000 1000" enable-background="new 0 0 1000 1000" xml:space="preserve">
<g>
	<path d="M953.961,350.062H46.969c-46.031,0-48.328,22.414-45.828,49.797l41.266,450.406c2.5,27.383,8.984,49.797,54.953,49.797
		H903.57c46.875,0,52.453-22.414,54.953-49.797l41.273-450.406C1002.297,372.477,1000,350.062,953.961,350.062z M920.68,240.062
		c-5.547-22-32.75-40-60.469-40H519.5c-27.727,0-66.445-15.875-86.086-35.281l-29.773-29.438
		c-19.625-19.406-58.359-35.281-86.078-35.281H154.773c-27.711,0-52.891,22.359-55.945,49.695L84.227,280.062h846.531
		L920.68,240.062z"/>
</g>
</svg>
