<?xml version="1.0" encoding="utf-8"?>
<!-- Generator: Adobe Illustrator 15.1.0, SVG Export Plug-In . SVG Version: 6.00 Build 0)  -->
<!DOCTYPE svg PUBLIC "-//W3C//DTD SVG 1.1//EN" "http://www.w3.org/Graphics/SVG/1.1/DTD/svg11.dtd">
<svg version="1.1" id="Layer_1" xmlns="http://www.w3.org/2000/svg" xmlns:xlink="http://www.w3.org/1999/xlink" x="0px" y="0px"
	 width="1000px" height="1000px" viewBox="0 0 1000 1000" enable-background="new 0 0 1000 1000" xml:space="preserve">
<path d="M498.469,20.055c-264.688,0-480,215.375-480,480.008c0,264.688,215.312,480,480,480s480-215.312,480-480
	C978.469,235.43,763.156,20.055,498.469,20.055z M907.844,500.062c0,93.641-31.766,180-84.797,249.062
	c-15-11.773-30.938-43.391-15.938-76.203c15.109-33.016,19.062-109.375,15.625-139.109c-3.328-29.688-18.75-101.305-60.719-101.984
	c-41.875-0.625-70.625-14.477-95.531-64.164c-51.656-103.391,96.984-123.234,45.312-180.516
	c-14.469-16.055-89.156,66.188-100.094-43.438c-0.734-7.773,6.766-19.492,16.766-31.68
	C790.656,166.523,907.844,319.805,907.844,500.062z M442.219,94.742c-9.797,19.062-35.625,26.82-51.359,41.156
	c-34.156,30.938-48.844,26.656-67.281,56.344c-18.547,29.688-78.344,72.5-78.344,93.969c0,21.445,30.219,46.812,45.312,41.875
	c15.109-4.961,54.906-4.688,78.344,3.531c23.438,8.281,195.719,16.562,140.828,162.195
	c-17.391,46.297-93.641,38.484-113.953,115.203c-3.031,11.203-13.547,59.273-14.281,75c-1.25,24.273,17.188,115.891-6.25,115.891
	c-23.531,0-86.875-81.93-86.875-96.773s-16.453-66.93-16.453-111.508c0-44.586-75.828-43.859-75.828-103.125
	c0-53.492,41.141-80.055,31.875-105.68c-9.062-25.477-81.359-26.414-111.469-29.484C169.094,216.773,292.953,115.367,442.219,94.742
	z M369.719,888.547c24.578-12.969,27.078-29.734,49.375-30.672c25.516-1.148,46.25-9.953,75-16.25
	c25.516-5.578,71.141-31.461,111.359-34.797c33.844-2.758,100.719,1.773,118.75,34.484
	c-64.797,43.016-142.406,68.125-225.734,68.125C453.469,909.438,410.234,902.039,369.719,888.547z"/>
</svg>
