<?xml version="1.0" encoding="utf-8"?>
<!-- Generator: Adobe Illustrator 15.1.0, SVG Export Plug-In . SVG Version: 6.00 Build 0)  -->
<!DOCTYPE svg PUBLIC "-//W3C//DTD SVG 1.1//EN" "http://www.w3.org/Graphics/SVG/1.1/DTD/svg11.dtd">
<svg version="1.1" id="Layer_1" xmlns="http://www.w3.org/2000/svg" xmlns:xlink="http://www.w3.org/1999/xlink" x="0px" y="0px"
	 width="1000px" height="1000px" viewBox="0 0 1000 1000" enable-background="new 0 0 1000 1000" xml:space="preserve">
<g>
	<path d="M596.641,40.062c-190.531,0-347.328,147.172-362.578,333.711C120.875,417.93,40.469,528.062,40.469,656.609
		c0,167.336,136.211,303.453,303.648,303.453c128.859,0,239.227-80.648,283.227-194.102
		C813.648,750.32,960.469,593.82,960.469,403.664C960.469,203.172,797.266,40.062,596.641,40.062z M344.117,858.914
		c-111.609,0-202.422-90.742-202.422-202.305c0-74.094,40.102-139.008,99.727-174.242
		c30.531,137.68,139.375,246.273,277.266,276.469C483.484,818.656,418.438,858.914,344.117,858.914z M347.32,454.383
		c108.906,1.695,197.188,89.773,199.125,198.555C446.539,632.883,367.617,554.156,347.32,454.383z M647.719,652.781
		c-2.055-164.508-135.75-297.891-300.438-299.57c23.5-116.117,126.367-203.773,249.359-203.773
		c140.273,0,254.414,114.023,254.414,254.227C851.055,526.391,763.625,629.086,647.719,652.781z M144.469,255.805
		c57.188,0,103.711-46.484,103.711-103.641c0-57.141-46.523-103.633-103.711-103.633S40.758,95.023,40.758,152.164
		C40.758,209.32,87.281,255.805,144.469,255.805z M144.469,94.984c31.562,0,57.211,25.656,57.211,57.18s-25.648,57.18-57.211,57.18
		c-31.539,0-57.195-25.656-57.195-57.18S112.93,94.984,144.469,94.984z"/>
</g>
</svg>
