<?xml version="1.0" encoding="utf-8"?>
<!-- Generator: Adobe Illustrator 15.1.0, SVG Export Plug-In . SVG Version: 6.00 Build 0)  -->
<!DOCTYPE svg PUBLIC "-//W3C//DTD SVG 1.1//EN" "http://www.w3.org/Graphics/SVG/1.1/DTD/svg11.dtd">
<svg version="1.1" id="Layer_1" xmlns="http://www.w3.org/2000/svg" xmlns:xlink="http://www.w3.org/1999/xlink" x="0px" y="0px"
	 width="1000px" height="1000px" viewBox="0 0 1000 1000" enable-background="new 0 0 1000 1000" xml:space="preserve">
<path d="M853.766,208.594c-82.609-76.719-216.562-76.719-299.195,0l-56.094,52.102l-56.117-52.102
	c-82.609-76.719-216.562-76.719-299.172,0c-92.953,86.312-92.953,226.242,0,312.547l355.289,329.922l355.289-329.922
	C946.719,434.836,946.719,294.906,853.766,208.594z M801.141,469.859l-302.664,285.68L195.82,469.859
	c-30.539-28.359-42.352-65.641-42.352-104.984c0.008-39.344,6.812-71.633,37.352-99.984c26.961-25.031,63.172-38.836,101.953-38.836
	s74.992,23.805,101.961,48.852l103.75,91.312l103.711-91.312c26.984-25.047,63.195-48.852,101.984-48.852
	c38.781,0,74.992,13.805,101.961,38.836c30.531,28.352,37.336,60.641,37.344,99.984C843.484,404.219,831.672,441.5,801.141,469.859z
	"/>
</svg>
