<?xml version="1.0" encoding="utf-8"?>
<!-- Generator: Adobe Illustrator 15.1.0, SVG Export Plug-In . SVG Version: 6.00 Build 0)  -->
<!DOCTYPE svg PUBLIC "-//W3C//DTD SVG 1.1//EN" "http://www.w3.org/Graphics/SVG/1.1/DTD/svg11.dtd">
<svg version="1.1" id="Layer_1" xmlns="http://www.w3.org/2000/svg" xmlns:xlink="http://www.w3.org/1999/xlink" x="0px" y="0px"
	 width="1000px" height="1000px" viewBox="0 0 1000 1000" enable-background="new 0 0 1000 1000" xml:space="preserve">
<g>
	<path d="M494.328,40.102C240.297,43.5,37.141,252.211,40.508,506.258c3.406,253.922,212.086,457.148,466.117,453.766
		c253.984-3.398,457.188-212.117,453.805-466.148C957.039,239.93,748.32,36.727,494.328,40.102z M492.969,780.062h-0.016
		l-2.531-0.039c-39.117-1.156-66.695-29.977-65.578-68.516c1.094-37.875,29.336-65.375,67.156-65.375l2.273,0.031
		c40.211,1.195,67.484,29.719,66.352,69.367C559.508,753.523,531.695,780.062,492.969,780.062z M657.516,453.477
		c-9.195,13.062-29.43,29.297-54.93,49.156l-28.07,19.375c-15.406,11.984-24.695,23.25-28.203,34.336
		c-2.75,8.727-4.094,11.039-4.32,28.797l-0.055,4.516H434.766l0.312-9.07c1.297-37.281,2.227-59.211,17.664-77.336
		c24.25-28.461,77.711-62.891,79.977-64.352c7.672-5.766,14.133-12.344,18.938-19.352c11.242-15.508,16.234-27.727,16.234-39.719
		c0-16.648-4.953-32.047-14.711-45.758c-9.391-13.234-27.234-19.938-53.023-19.938c-25.586,0-43.117,8.117-53.609,24.781
		c-10.766,17.125-16.227,35.117-16.227,53.492v4.57H319.812l0.203-4.766c2.852-67.688,27-116.422,71.781-144.875
		c28.141-18.094,63.133-27.273,103.969-27.273c53.469,0,98.594,12.992,134.133,38.617c36,25.953,54.25,64.844,54.25,115.555
		C684.148,402.602,675.195,429.258,657.516,453.477z"/>
</g>
</svg>
