<?xml version="1.0" encoding="utf-8"?>
<!-- Generator: Adobe Illustrator 15.1.0, SVG Export Plug-In . SVG Version: 6.00 Build 0)  -->
<!DOCTYPE svg PUBLIC "-//W3C//DTD SVG 1.1//EN" "http://www.w3.org/Graphics/SVG/1.1/DTD/svg11.dtd">
<svg version="1.1" id="Layer_1" xmlns="http://www.w3.org/2000/svg" xmlns:xlink="http://www.w3.org/1999/xlink" x="0px" y="0px"
	 width="1000px" height="1000px" viewBox="0 0 1000 1000" enable-background="new 0 0 1000 1000" xml:space="preserve">
<g>
	<path d="M704.953,111.758c-57.016-41.125-128.617-61.695-214.789-61.695c-65.586,0-120.898,14.492-165.883,43.398
		c-71.312,45.312-109.242,122.227-113.812,230.727h165.297c0-31.586,9.234-62.031,27.672-91.367
		c18.445-29.32,49.742-43.969,93.883-43.969c44.883,0,75.805,11.906,92.711,35.688c16.93,23.805,25.398,50.172,25.398,79.102
		c0,25.125-12.617,48.164-27.812,69.102c-8.359,12.195-19.383,23.414-33.07,33.688c0,0-89.656,57.5-129,103.688
		c-22.844,26.805-24.883,66.922-26.906,124.484c-0.141,4.094,1.422,12.555,15.766,12.555s115.812,0,128.57,0
		s15.422-9.516,15.586-13.625c0.898-20.977,3.266-31.672,7.07-43.773c7.234-22.859,26.883-42.828,48.938-59.969l45.508-31.406
		c41.07-31.992,73.836-58.258,88.297-78.828c24.727-33.867,42.094-75.562,42.094-125.055
		C790.469,213.797,761.953,152.875,704.953,111.758z M487.508,746.234c-56.977-1.695-103.984,37.719-105.773,99.516
		c-1.773,61.773,42.93,102.578,99.906,104.258c59.492,1.766,105.219-36.367,107.008-98.148
		C590.43,790.062,547,747.992,487.508,746.234z"/>
</g>
</svg>
