<?xml version="1.0" encoding="utf-8"?>
<!-- Generator: Adobe Illustrator 15.1.0, SVG Export Plug-In . SVG Version: 6.00 Build 0)  -->
<!DOCTYPE svg PUBLIC "-//W3C//DTD SVG 1.1//EN" "http://www.w3.org/Graphics/SVG/1.1/DTD/svg11.dtd">
<svg version="1.1" id="Layer_1" xmlns="http://www.w3.org/2000/svg" xmlns:xlink="http://www.w3.org/1999/xlink" x="0px" y="0px"
	 width="1000px" height="1000px" viewBox="0 0 1000 1000" enable-background="new 0 0 1000 1000" xml:space="preserve">
<g>
	<path d="M856.703,333.641L754.43,51.875c-7.555-20.797-29.711-31.812-49.453-24.609L25.109,275.375
		C5.352,282.578-4.555,305.297,3,326.094l107.836,297.094V463.93c0-71.836,57.445-130.289,128.039-130.289h179.641L632.773,183.25
		l123.984,150.391H856.703z M962.375,423.828h-723.5c-21.023,0-38.078,17.961-38.078,40.102v471.047
		c0,22.133,17.055,40.086,38.078,40.086h723.5c21.039,0,38.094-17.953,38.094-40.086V463.93
		C1000.469,441.789,983.414,423.828,962.375,423.828z M907.164,874.836H307.43V788.93l92.266-214.758l138.406,171.82
		l129.844-133.102l166.945-60.242l72.273,161.102V874.836z"/>
</g>
</svg>
