<?xml version="1.0" encoding="utf-8"?>
<!-- Generator: Adobe Illustrator 15.1.0, SVG Export Plug-In . SVG Version: 6.00 Build 0)  -->
<!DOCTYPE svg PUBLIC "-//W3C//DTD SVG 1.1//EN" "http://www.w3.org/Graphics/SVG/1.1/DTD/svg11.dtd">
<svg version="1.1" id="Layer_1" xmlns="http://www.w3.org/2000/svg" xmlns:xlink="http://www.w3.org/1999/xlink" x="0px" y="0px"
	 width="1000px" height="1000px" viewBox="0 0 1000 1000" enable-background="new 0 0 1000 1000" xml:space="preserve">
<g>
	<path d="M370.469,200.062h-90c-55,0-80,25-80,80v90c0,55,25,80,80,80h90c55,0,80-25,80-80v-90
		C450.469,225.062,425.469,200.062,370.469,200.062z M720.469,200.062h-90c-55,0-80,25-80,80v90c0,55,25,80,80,80h90
		c55,0,80-25,80-80v-90C800.469,225.062,775.469,200.062,720.469,200.062z M370.469,550.062h-90c-55,0-80,25-80,80v90
		c0,55,25,80,80,80h90c55,0,80-25,80-80v-90C450.469,575.062,425.469,550.062,370.469,550.062z M720.469,550.062h-90
		c-55,0-80,25-80,80v90c0,55,25,80,80,80h90c55,0,80-25,80-80v-90C800.469,575.062,775.469,550.062,720.469,550.062z"/>
</g>
</svg>
