<?xml version="1.0" encoding="utf-8"?>
<!-- Generator: Adobe Illustrator 15.1.0, SVG Export Plug-In . SVG Version: 6.00 Build 0)  -->
<!DOCTYPE svg PUBLIC "-//W3C//DTD SVG 1.1//EN" "http://www.w3.org/Graphics/SVG/1.1/DTD/svg11.dtd">
<svg version="1.1" id="Layer_1" xmlns="http://www.w3.org/2000/svg" xmlns:xlink="http://www.w3.org/1999/xlink" x="0px" y="0px"
	 width="1000px" height="1000px" viewBox="0 0 1000 1000" enable-background="new 0 0 1000 1000" xml:space="preserve">
<path d="M965.422,452.172c-19.602-20.828-114.219-113.57-157.492-155.914c-13.25-12.945-32.258-21.195-52.109-21.195
	s-257.352,0-257.352,0s-237.5,0-257.359,0c-19.852,0-38.852,8.25-52.109,21.195C145.734,338.602,51.109,431.344,31.516,452.172
	C7.062,478.18-6.359,498.938,0.031,524.641l28.047,153.688c6.367,25.703,34.531,46.734,62.578,46.734h815.625
	c28.047,0,56.211-21.031,62.578-46.734l28.047-153.688C1003.289,498.938,989.875,478.18,965.422,452.172z M700.867,485.5
	c-5.078,0-9.688,2.578-11.969,6.641l-40.859,101.75H348.898l-40.859-101.75c-2.289-4.062-6.898-6.641-11.977-6.641H118.836
	l102.031-110.438h555.195L878.094,485.5H700.867z"/>
</svg>
