<?xml version="1.0" encoding="utf-8"?>
<!-- Generator: Adobe Illustrator 15.1.0, SVG Export Plug-In . SVG Version: 6.00 Build 0)  -->
<!DOCTYPE svg PUBLIC "-//W3C//DTD SVG 1.1//EN" "http://www.w3.org/Graphics/SVG/1.1/DTD/svg11.dtd">
<svg version="1.1" id="Layer_1" xmlns="http://www.w3.org/2000/svg" xmlns:xlink="http://www.w3.org/1999/xlink" x="0px" y="0px"
	 width="1000px" height="1000px" viewBox="0 0 1000 1000" enable-background="new 0 0 1000 1000" xml:space="preserve">
<g>
	<path d="M622.086,0.062c66.953,0,100.43,45.68,100.43,97.891c0,65.227-58.141,125.547-133.906,125.547
		c-63.438,0-100.445-37.516-98.688-99.469C489.922,71.82,533.961,0.062,622.086,0.062z M415.898,1000.062
		c-52.875,0-91.641-32.617-54.633-176.148l60.703-254.57c10.57-40.773,12.305-57.07,0-57.07c-15.875,0-84.508,28.164-125.094,55.898
		l-26.406-44.047c128.633-109.258,276.617-173.336,340.039-173.336c52.852,0,61.68,63.609,35.25,161.484l-69.492,267.594
		c-12.344,47.289-7.031,63.594,5.273,63.594c15.859,0,67.875-19.625,118.969-60.406l29.961,40.781
		C605.352,951.062,468.766,1000.062,415.898,1000.062z"/>
</g>
</svg>
