<?xml version="1.0" encoding="utf-8"?>
<!-- Generator: Adobe Illustrator 15.1.0, SVG Export Plug-In . SVG Version: 6.00 Build 0)  -->
<!DOCTYPE svg PUBLIC "-//W3C//DTD SVG 1.1//EN" "http://www.w3.org/Graphics/SVG/1.1/DTD/svg11.dtd">
<svg version="1.1" id="Layer_1" xmlns="http://www.w3.org/2000/svg" xmlns:xlink="http://www.w3.org/1999/xlink" x="0px" y="0px"
	 width="1000px" height="1000px" viewBox="0 0 1000 1000" enable-background="new 0 0 1000 1000" xml:space="preserve">
<g>
	<path d="M494.328,40.102C240.297,43.5,37.141,252.211,40.508,506.258c3.406,253.922,212.086,457.148,466.117,453.766
		c253.984-3.414,457.188-212.125,453.805-466.148C957.039,239.93,748.32,36.711,494.328,40.102z M545.312,193.398
		c46.766,0,60.578,27.133,60.578,58.148c0,38.773-31.039,74.609-83.969,74.609c-44.297,0-65.375-22.289-64.141-59.102
		C457.781,236.031,483.766,193.398,545.312,193.398z M425.43,787.562c-31.953,0-55.367-19.383-33-104.664l36.648-151.25
		c6.375-24.242,7.453-33.93,0-33.93c-9.578,0-51.062,16.742-75.562,33.227l-15.969-26.172
		C415.281,439.859,504.672,401.781,543,401.781c31.938,0,37.266,37.797,21.297,95.938l-41.984,159.008
		c-7.453,28.102-4.25,37.789,3.188,37.789c9.594,0,41-11.656,71.875-35.898l18.094,24.242
		C539.875,758.445,457.359,787.562,425.43,787.562z"/>
</g>
</svg>
