<?xml version="1.0" encoding="utf-8"?>
<!-- Generator: Adobe Illustrator 15.1.0, SVG Export Plug-In . SVG Version: 6.00 Build 0)  -->
<!DOCTYPE svg PUBLIC "-//W3C//DTD SVG 1.1//EN" "http://www.w3.org/Graphics/SVG/1.1/DTD/svg11.dtd">
<svg version="1.1" id="Layer_1" xmlns="http://www.w3.org/2000/svg" xmlns:xlink="http://www.w3.org/1999/xlink" x="0px" y="0px"
	 width="1000px" height="1000px" viewBox="0 0 1000 1000" enable-background="new 0 0 1000 1000" xml:space="preserve">
<g>
	<path d="M934.656,545.102L777.25,170.492c-12.469-24.977-45.477-45.43-73.359-45.43H600.469l20,203.227h135l-255,211.461
		l-255-211.461h135l20-203.227h-103.43c-27.883,0-60.891,20.453-73.359,45.43L66.281,545.102c-12.477,25-18.922,68.008-14.344,95.57
		l34.016,184.273c4.594,27.562,31.141,50.117,59.023,50.117h710.977c27.883,0,54.438-22.555,59.023-50.117l34.016-184.273
		C953.57,613.109,947.125,570.102,934.656,545.102z M866.523,681.508l-12.953,72.109c-3.875,27.68-29.852,50.312-57.727,50.312
		H205.086c-27.867,0-53.852-22.633-57.727-50.312l-12.945-72.109c-3.867-27.672,15.773-50.312,43.648-50.312h644.805
		C850.75,631.195,870.391,653.836,866.523,681.508z"/>
</g>
</svg>
