<?xml version="1.0" encoding="utf-8"?>
<!-- Generator: Adobe Illustrator 15.1.0, SVG Export Plug-In . SVG Version: 6.00 Build 0)  -->
<!DOCTYPE svg PUBLIC "-//W3C//DTD SVG 1.1//EN" "http://www.w3.org/Graphics/SVG/1.1/DTD/svg11.dtd">
<svg version="1.1" id="Layer_1" xmlns="http://www.w3.org/2000/svg" xmlns:xlink="http://www.w3.org/1999/xlink" x="0px" y="0px"
	 width="1000px" height="1000px" viewBox="0 0 1000 1000" enable-background="new 0 0 1000 1000" xml:space="preserve">
<g>
	<path d="M613.125,477.961L249.336,249.484c-26.875-17.633-48.867-4.656-48.867,28.82v443.523c0,33.477,21.992,46.445,48.867,28.828
		L613.125,522.18c0,0,13.102-9.219,13.102-22.109S613.125,477.961,613.125,477.961z M725.469,209.867c-44.398,0-75,13.648-75,58.031
		v464.328c0,44.391,30.602,58.039,75,58.039c44.391,0,75-13.648,75-58.039V267.898C800.469,223.516,769.859,209.867,725.469,209.867
		z"/>
</g>
</svg>
