<?xml version="1.0" encoding="utf-8"?>
<!-- Generator: Adobe Illustrator 15.1.0, SVG Export Plug-In . SVG Version: 6.00 Build 0)  -->
<!DOCTYPE svg PUBLIC "-//W3C//DTD SVG 1.1//EN" "http://www.w3.org/Graphics/SVG/1.1/DTD/svg11.dtd">
<svg version="1.1" id="Layer_1" xmlns="http://www.w3.org/2000/svg" xmlns:xlink="http://www.w3.org/1999/xlink" x="0px" y="0px"
	 width="1000px" height="1000px" viewBox="0 0 1000 1000" enable-background="new 0 0 1000 1000" xml:space="preserve">
<g>
	<path d="M374.703,500.07c0,12.891,13.109,22.109,13.109,22.109l363.789,228.484c26.875,17.609,48.867,4.641,48.867-28.828V278.297
		c0-33.477-21.992-46.445-48.867-28.805L387.812,477.961C387.812,477.961,374.703,487.18,374.703,500.07z M200.469,267.906v464.32
		c0,44.391,30.602,58.047,75,58.047c44.391,0,75-13.656,75-58.047v-464.32c0-44.398-30.609-58.047-75-58.047
		C231.07,209.859,200.469,223.508,200.469,267.906z"/>
</g>
</svg>
