<?xml version="1.0" encoding="utf-8"?>
<!-- Generator: Adobe Illustrator 15.1.0, SVG Export Plug-In . SVG Version: 6.00 Build 0)  -->
<!DOCTYPE svg PUBLIC "-//W3C//DTD SVG 1.1//EN" "http://www.w3.org/Graphics/SVG/1.1/DTD/svg11.dtd">
<svg version="1.1" id="Layer_1" xmlns="http://www.w3.org/2000/svg" xmlns:xlink="http://www.w3.org/1999/xlink" x="0px" y="0px"
	 width="1000px" height="1000px" viewBox="0 0 1000 1000" enable-background="new 0 0 1000 1000" xml:space="preserve">
<path d="M928.469,200.055h-860c-38.5,0-70,31.508-70,70v460.008c0,38.5,31.5,70,70,70h860c38.492,0,70-31.5,70-70V270.055
	C998.469,231.562,966.961,200.055,928.469,200.055z M548.469,300.055h100v100.008h-100V300.055z M698.469,450.062v100h-100v-100
	H698.469z M398.469,300.055h100v100.008h-100V300.055z M548.469,450.062v100h-100v-100H548.469z M248.469,300.055h100v100.008h-100
	V300.055z M398.469,450.062v100h-100v-100H398.469z M98.469,300.055h100v100.008h-100V300.055z M248.469,450.062v100h-100v-100
	H248.469z M198.469,700.062h-100v-100h100V700.062z M748.469,700.062h-500v-100h500V700.062z M898.469,700.062h-100v-100h100
	V700.062z M748.469,550.062v-100h100v100H748.469z M898.469,400.062h-200V300.055h200V400.062z"/>
</svg>
