<?xml version="1.0" encoding="utf-8"?>
<!-- Generator: Adobe Illustrator 15.1.0, SVG Export Plug-In . SVG Version: 6.00 Build 0)  -->
<!DOCTYPE svg PUBLIC "-//W3C//DTD SVG 1.1//EN" "http://www.w3.org/Graphics/SVG/1.1/DTD/svg11.dtd">
<svg version="1.1" id="Layer_1" xmlns="http://www.w3.org/2000/svg" xmlns:xlink="http://www.w3.org/1999/xlink" x="0px" y="0px"
	 width="1000px" height="1000px" viewBox="0 0 1000 1000" enable-background="new 0 0 1000 1000" xml:space="preserve">
<g>
	<path d="M958.469,500.047c0-254.047-205.961-459.984-460-459.984c-254.062,0-460,205.938-460,459.984
		c0,254.062,205.938,460.016,460,460.016C752.508,960.062,958.469,754.109,958.469,500.047z M138.469,500.047
		c0-198.812,161.172-359.984,360-359.984s360,161.172,360,359.984c0,198.844-161.172,360.016-360,360.016
		S138.469,698.891,138.469,500.047z M690.969,590.062v-180H486.453v-112.5l-190.484,202.5l190.484,202.5v-112.5H690.969z"/>
</g>
</svg>
