<?xml version="1.0" encoding="utf-8"?>
<!-- Generator: Adobe Illustrator 15.1.0, SVG Export Plug-In . SVG Version: 6.00 Build 0)  -->
<!DOCTYPE svg PUBLIC "-//W3C//DTD SVG 1.1//EN" "http://www.w3.org/Graphics/SVG/1.1/DTD/svg11.dtd">
<svg version="1.1" id="Layer_1" xmlns="http://www.w3.org/2000/svg" xmlns:xlink="http://www.w3.org/1999/xlink" x="0px" y="0px"
	 width="1000px" height="1000px" viewBox="0 0 1000 1000" enable-background="new 0 0 1000 1000" xml:space="preserve">
<g>
	<path d="M494.328,40.117C240.289,43.492,37.125,252.18,40.508,506.211c3.406,254.062,212.086,457.203,466.102,453.805
		c254.031-3.383,457.195-212.07,453.82-466.094C957.016,239.859,748.32,36.711,494.328,40.117z M495.117,100.094
		c68.516-0.914,133.219,15.477,190,45.078l-61.914,103.195c-37.07-18.117-78.711-28.305-122.734-28.305
		c-44.031,0-85.688,10.195-122.75,28.305l-61.883-103.125C369.562,117.234,430.406,100.953,495.117,100.094z M248.766,622.805
		l-103.109,61.859c-28-53.703-44.289-114.547-45.148-179.258c-0.922-68.508,15.477-133.211,45.078-189.992l103.18,61.922
		c-18.102,37.055-28.297,78.695-28.297,122.727C220.469,544.102,230.664,585.742,248.766,622.805z M505.82,900.023
		c-68.516,0.922-133.227-15.477-190-45.086l61.914-103.172c37.062,18.102,78.703,28.297,122.734,28.297
		c44.023,0,85.664-10.18,122.719-28.289l61.875,103.117C631.367,882.883,570.508,899.156,505.82,900.023z M500.469,720.062
		c-121.508,0-220-98.492-220-220c0-121.5,98.492-220,220-220c121.5,0,220,98.5,220,220
		C720.469,621.57,621.969,720.062,500.469,720.062z M752.164,622.805c18.109-37.062,28.305-78.703,28.305-122.742
		c0-44.031-10.195-85.672-28.305-122.727l103.125-61.883c28,53.711,44.281,114.555,45.141,179.25
		c0.914,68.523-15.477,133.234-45.086,190.008L752.164,622.805z"/>
</g>
</svg>
