<?xml version="1.0" encoding="utf-8"?>
<!-- Generator: Adobe Illustrator 15.1.0, SVG Export Plug-In . SVG Version: 6.00 Build 0)  -->
<!DOCTYPE svg PUBLIC "-//W3C//DTD SVG 1.1//EN" "http://www.w3.org/Graphics/SVG/1.1/DTD/svg11.dtd">
<svg version="1.1" id="Layer_1" xmlns="http://www.w3.org/2000/svg" xmlns:xlink="http://www.w3.org/1999/xlink" x="0px" y="0px"
	 width="1000px" height="1000px" viewBox="0 0 1000 1000" enable-background="new 0 0 1000 1000" xml:space="preserve">
<path d="M498.469,340.062c-88.734,0-159.992,71.273-159.992,160c0,88.734,71.258,160,159.992,160c88.727,0,160-71.266,160-160
	C658.469,411.336,587.195,340.062,498.469,340.062z M498.469,602.562c-56.633,0-102.5-45.875-102.5-102.5
	c0-56.617,45.867-102.5,102.5-102.5c56.617,0,102.5,45.883,102.5,102.5C600.969,556.688,555.086,602.562,498.469,602.562z
	 M198.469,460.062c-27.617,0-50,17.914-50,40c0,22.094,22.383,40,50,40s49-17.906,49-40
	C247.469,477.977,226.086,460.062,198.469,460.062z M743.836,254.703c-15.625-15.625-44.117-12.438-63.648,7.07
	c-19.516,19.531-22.68,48.023-7.055,63.633c15.625,15.641,44.102,12.469,63.633-7.047
	C756.281,298.836,759.461,270.328,743.836,254.703z M798.469,460.062c-27.617,0-49.008,17.914-49.008,40
	c0,22.094,21.391,40,49.008,40s50-17.906,50-40C848.469,477.977,826.086,460.062,798.469,460.062z M498.469,750.062
	c-22.094,0-40,22.391-40,50c0,27.625,17.906,50,40,50c22.086,0,40-22.375,40-50C538.469,772.453,520.555,750.062,498.469,750.062z
	 M260.188,686.781c-19.516,19.516-22.695,48.016-7.07,63.641s44.117,12.438,63.633-7.078c19.531-19.531,22.695-48.023,7.086-63.648
	C308.211,664.094,279.719,667.25,260.188,686.781z M250.617,257.203c-15.625,15.625-12.445,44.125,7.07,63.656
	c19.531,19.508,48.023,22.672,63.641,7.047c15.633-15.625,12.469-44.102-7.062-63.633
	C294.758,244.766,266.242,241.578,250.617,257.203z M682.703,740.844c19.516,19.516,48.008,22.703,63.633,7.078
	c15.617-15.625,12.445-44.125-7.07-63.641c-19.531-19.531-48.023-22.688-63.648-7.086C660,692.82,663.172,721.312,682.703,740.844z
	 M498.469,250.055c22.086,0,40-22.383,40-50s-17.914-50-40-50c-22.094,0-40,22.383-40,50S476.375,250.055,498.469,250.055z"/>
</svg>
