<?xml version="1.0" encoding="utf-8"?>
<!-- Generator: Adobe Illustrator 15.1.0, SVG Export Plug-In . SVG Version: 6.00 Build 0)  -->
<!DOCTYPE svg PUBLIC "-//W3C//DTD SVG 1.1//EN" "http://www.w3.org/Graphics/SVG/1.1/DTD/svg11.dtd">
<svg version="1.1" id="Layer_1" xmlns="http://www.w3.org/2000/svg" xmlns:xlink="http://www.w3.org/1999/xlink" x="0px" y="0px"
	 width="1000px" height="1000px" viewBox="0 0 1000 1000" enable-background="new 0 0 1000 1000" xml:space="preserve">
<path d="M948.469,460.062c-9.062,0-39.953,0-49.008,0c-27.617,0-50,17.914-50,40c0,22.094,22.383,40,50,40
	c9.055,0,39.945,0,49.008,0c27.617,0,50-17.906,50-40C998.469,477.977,976.086,460.062,948.469,460.062z M498.469,225.078
	c-152.523,0-275,122.477-275,274.984c0,152.523,122.477,275.016,275,275.016c152.508,0,275-122.492,275-275.016
	C773.469,347.555,650.977,225.078,498.469,225.078z M498.469,700.062c-110.508,0-200-89.5-200-200
	c0-110.484,89.492-200.008,200-200.008c110.484,0,200,89.523,200,200.008C698.469,610.562,608.953,700.062,498.469,700.062z
	 M147.453,500.062c0-22.086-21.367-40-48.984-40c-9.219,0-40.805,0-50,0c-27.617,0-50,17.914-50,40c0,22.094,22.383,40,50,40
	c9.195,0,40.781,0,50,0C126.086,540.062,147.453,522.156,147.453,500.062z M498.469,150.055c22.086,0,40-22.383,40-50
	c0-9.148,0-40.836,0-50c0-27.617-17.914-50-40-50c-22.094,0-40,22.383-40,50c0,9.164,0,40.852,0,50
	C458.469,127.672,476.375,150.055,498.469,150.055z M498.469,850.062c-22.094,0-40,22.391-40,50c0,9.156,0,40.844,0,50
	c0,27.625,17.906,50,40,50c22.086,0,40-22.375,40-50c0-9.156,0-40.844,0-50C538.469,872.453,520.555,850.062,498.469,850.062z
	 M866.75,188.359c19.531-19.523,22.695-48.031,7.07-63.656s-44.125-12.438-63.633,7.07c-5.391,5.391-29.625,29.609-35,35
	c-19.531,19.531-22.695,48.023-7.07,63.633c15.625,15.641,44.117,12.469,63.633-7.047
	C837.141,217.969,861.367,193.75,866.75,188.359z M165.164,776.781c-5.391,5.391-29.609,29.633-35,35
	c-19.508,19.516-22.672,48.016-7.07,63.641c15.625,15.625,44.125,12.438,63.633-7.078c5.391-5.367,29.617-29.586,35-34.977
	c19.531-19.523,22.695-48.023,7.07-63.648S184.68,757.273,165.164,776.781z M186.766,131.773
	c-19.531-19.523-48.023-22.695-63.648-7.07s-12.453,44.125,7.07,63.641c5.375,5.383,29.609,29.625,35,35
	c19.531,19.523,48.008,22.688,63.633,7.062s12.461-44.109-7.055-63.633C216.375,161.383,192.148,137.164,186.766,131.773z
	 M775.188,833.367c5.391,5.391,29.625,29.609,35.008,34.992c19.508,19.508,48.008,22.688,63.633,7.07
	c15.617-15.625,12.438-44.125-7.07-63.633c-5.383-5.383-29.602-29.625-34.992-35c-19.508-19.523-48.023-22.695-63.648-7.07
	S755.672,813.844,775.188,833.367z"/>
</svg>
