<?xml version="1.0" encoding="utf-8"?>
<!-- Generator: Adobe Illustrator 15.1.0, SVG Export Plug-In . SVG Version: 6.00 Build 0)  -->
<!DOCTYPE svg PUBLIC "-//W3C//DTD SVG 1.1//EN" "http://www.w3.org/Graphics/SVG/1.1/DTD/svg11.dtd">
<svg version="1.1" id="Layer_1" xmlns="http://www.w3.org/2000/svg" xmlns:xlink="http://www.w3.org/1999/xlink" x="0px" y="0px"
	 width="1000px" height="1000px" viewBox="0 0 1000 1000" enable-background="new 0 0 1000 1000" xml:space="preserve">
<g>
	<path d="M50.469,470.805v306.258c0,29.547,14.344,48,44.57,48c0,0,101.18,0,155.43,0v-400H93.68
		C61.391,425.062,50.469,449.602,50.469,470.805z M834.438,365.062c-57.359,0-183.969,5-183.969,5l10-156.133
		c0-95.625-18.234-138.867-70.094-138.867c-64.32,0-38.367,78.172-59.164,145.898c-20.805,67.727-133.109,204.102-214.336,204.102
		h-16.406v400c114.742,0,116.484,100,220.203,100c66.242,0,211.109,0,211.109,0c104.297,0,218.688-92.344,218.688-172.32V511.727
		C950.469,420.688,913.992,365.062,834.438,365.062z"/>
</g>
</svg>
