<?xml version="1.0" encoding="utf-8"?>
<!-- Generator: Adobe Illustrator 15.1.0, SVG Export Plug-In . SVG Version: 6.00 Build 0)  -->
<!DOCTYPE svg PUBLIC "-//W3C//DTD SVG 1.1//EN" "http://www.w3.org/Graphics/SVG/1.1/DTD/svg11.dtd">
<svg version="1.1" id="Layer_1" xmlns="http://www.w3.org/2000/svg" xmlns:xlink="http://www.w3.org/1999/xlink" x="0px" y="0px"
	 width="1000px" height="1000px" viewBox="0 0 1000 1000" enable-background="new 0 0 1000 1000" xml:space="preserve">
<g>
	<path d="M393.445,735.773l-40.477,40.195c-35.094,34.781-92.156,34.805-127.227,0c-16.859-16.727-26.125-38.945-26.125-62.57
		c0-23.617,9.266-45.852,26.117-62.578l149-147.828c30.875-30.625,88.977-75.711,131.312-33.727
		c19.43,19.297,50.805,19.172,70.094-0.25c19.297-19.422,19.18-50.812-0.25-70.086c-71.977-71.422-178.344-58.219-270.984,33.695
		L155.898,580.469c-35.758,35.492-55.43,82.695-55.43,132.93s19.672,97.43,55.438,132.922
		c36.789,36.508,85.094,54.742,133.43,54.742S386,882.828,422.812,846.297l40.508-40.203c19.422-19.273,19.531-50.664,0.234-70.086
		C444.281,716.594,412.875,716.484,393.445,735.773z M845.008,161.508c-77.305-76.703-185.383-80.867-256.945-9.867l-50.453,50.094
		c-19.438,19.281-19.555,50.656-0.258,70.086s50.68,19.539,70.109,0.25L657.898,222c37.07-36.805,85.602-21.539,117.266,9.867
		c16.875,16.727,26.148,38.961,26.148,62.586c0,23.617-9.273,45.852-26.125,62.578L616.211,514.734
		C543.523,586.859,509.422,553,494.875,538.562c-19.438-19.281-50.805-19.156-70.102,0.258
		c-19.297,19.422-19.18,50.805,0.258,70.086c33.367,33.125,71.461,49.547,111.383,49.547c48.883,0,100.523-24.633,149.633-73.375
		l158.969-157.695c35.75-35.5,55.453-82.703,55.453-132.938C900.469,244.219,880.766,197.016,845.008,161.508z"/>
</g>
</svg>
