<?xml version="1.0" encoding="utf-8"?>
<!-- Generator: Adobe Illustrator 15.1.0, SVG Export Plug-In . SVG Version: 6.00 Build 0)  -->
<!DOCTYPE svg PUBLIC "-//W3C//DTD SVG 1.1//EN" "http://www.w3.org/Graphics/SVG/1.1/DTD/svg11.dtd">
<svg version="1.1" id="Layer_1" xmlns="http://www.w3.org/2000/svg" xmlns:xlink="http://www.w3.org/1999/xlink" x="0px" y="0px"
	 width="1000px" height="1000px" viewBox="0 0 1000 1000" enable-background="new 0 0 1000 1000" xml:space="preserve">
<g>
	<path d="M799.508,450.062h-600c-27.617,0-50,22.383-50,50s22.383,50,50,50h600c27.617,0,50-22.383,50-50
		S827.125,450.062,799.508,450.062z M199.508,350.062h600c27.617,0,50-22.383,50-50s-22.383-50-50-50h-600
		c-27.617,0-50,22.383-50,50S171.891,350.062,199.508,350.062z M799.508,650.062h-600c-27.617,0-50,22.383-50,50s22.383,50,50,50
		h600c27.617,0,50-22.383,50-50S827.125,650.062,799.508,650.062z"/>
</g>
</svg>
