<?xml version="1.0" encoding="utf-8"?>
<!-- Generator: Adobe Illustrator 15.1.0, SVG Export Plug-In . SVG Version: 6.00 Build 0)  -->
<!DOCTYPE svg PUBLIC "-//W3C//DTD SVG 1.1//EN" "http://www.w3.org/Graphics/SVG/1.1/DTD/svg11.dtd">
<svg version="1.1" id="Layer_1" xmlns="http://www.w3.org/2000/svg" xmlns:xlink="http://www.w3.org/1999/xlink" x="0px" y="0px"
	 width="1000px" height="1000px" viewBox="0 0 1000 1000" enable-background="new 0 0 1000 1000" xml:space="preserve">
<g>
	<path d="M790.469,375.062h-90v-70c0-144.859-66.734-230-200-230c-133.273,0-200,85.141-200,230v70h-100c-27.617,0-50,32.383-50,60
		v390c0,27.5,21.414,56.914,47.586,65.352l59.82,19.297c26.172,8.453,70.094,15.352,97.594,15.352h290
		c27.5,0,71.414-6.898,97.586-15.352l59.82-19.297c26.172-8.438,47.594-37.852,47.594-65.352v-390
		C850.469,407.445,818.086,375.062,790.469,375.062z M400.469,285.062c0-72.242,39.859-110,100-110c60.133,0,100,37.758,100,110v90
		h-200V285.062z"/>
</g>
</svg>
