<?xml version="1.0" encoding="utf-8"?>
<!-- Generator: Adobe Illustrator 15.1.0, SVG Export Plug-In . SVG Version: 6.00 Build 0)  -->
<!DOCTYPE svg PUBLIC "-//W3C//DTD SVG 1.1//EN" "http://www.w3.org/Graphics/SVG/1.1/DTD/svg11.dtd">
<svg version="1.1" id="Layer_1" xmlns="http://www.w3.org/2000/svg" xmlns:xlink="http://www.w3.org/1999/xlink" x="0px" y="0px"
	 width="1000px" height="1000px" viewBox="0 0 1000 1000" enable-background="new 0 0 1000 1000" xml:space="preserve">
<g>
	<g>
		<path d="M800.469,362.211h-30c-11,0-20,9.008-20,20v137.852c0,66.859-52.656,180-250,180c-197.359,0-250-113.141-250-180V382.211
			c0-10.992-9.016-20-20-20h-30c-11,0-20,9.008-20,20v137.852c0,111.836,82.141,231.523,270,248.008v131.992h-130
			c-11,0-20,8.984-20,20v60c0,11,9,20,20,20h360c10.984,0,20-9,20-20v-60c0-11.016-9.016-20-20-20h-130V768.07
			c187.852-16.484,270-136.172,270-248.008V382.211C820.469,371.219,811.453,362.211,800.469,362.211z"/>
		<path d="M500.469,600.062c117.32,0,150-48.18,150-80V362.211h-300v157.852C350.469,551.883,383.109,600.062,500.469,600.062z"/>
		<path d="M650.469,80.062c0-31.836-32.68-80-150-80c-117.359,0-150,48.164-150,80v212.148h300V80.062z"/>
	</g>
</g>
</svg>
