<?xml version="1.0" encoding="utf-8"?>
<!-- Generator: Adobe Illustrator 15.1.0, SVG Export Plug-In . SVG Version: 6.00 Build 0)  -->
<!DOCTYPE svg PUBLIC "-//W3C//DTD SVG 1.1//EN" "http://www.w3.org/Graphics/SVG/1.1/DTD/svg11.dtd">
<svg version="1.1" id="Layer_1" xmlns="http://www.w3.org/2000/svg" xmlns:xlink="http://www.w3.org/1999/xlink" x="0px" y="0px"
	 width="1000px" height="1000px" viewBox="0 0 1000 1000" enable-background="new 0 0 1000 1000" xml:space="preserve">
<g>
	<path d="M690.469,10.062h-380c-55,0-100,45-100,100v780c0,55,45,100,100,100h380c55,0,100-45,100-100v-780
		C790.469,55.062,745.469,10.062,690.469,10.062z M500.469,950.062c-38.641,0-70-22.375-70-50c0-27.609,31.359-50,70-50
		s70,22.391,70,50C570.469,927.688,539.109,950.062,500.469,950.062z M710.469,800.062h-420v-660h420V800.062z"/>
</g>
</svg>
