<?xml version="1.0" encoding="utf-8"?>
<!-- Generator: Adobe Illustrator 15.1.0, SVG Export Plug-In . SVG Version: 6.00 Build 0)  -->
<!DOCTYPE svg PUBLIC "-//W3C//DTD SVG 1.1//EN" "http://www.w3.org/Graphics/SVG/1.1/DTD/svg11.dtd">
<svg version="1.1" id="Layer_1" xmlns="http://www.w3.org/2000/svg" xmlns:xlink="http://www.w3.org/1999/xlink" x="0px" y="0px"
	 width="1000px" height="1000px" viewBox="0 0 1000 1000" enable-background="new 0 0 1000 1000" xml:space="preserve">
<g>
	<path d="M769.586,719.219l-131.289-376.82C602.172,238.734,489.984,181.43,383.695,209.734L284.867,18.023
		c-8.953-17.359-29.914-24-46.883-14.836c-16.953,9.164-23.438,30.695-14.484,48.047l96.453,187.117
		c-76.859,50.984-116.797,147.664-91.484,238.703l106.984,384.805c30.07,108.148,153.984,163.25,278.531,125.164
		C736.938,943.805,806.5,825.133,769.586,719.219z M444.477,445.195c-36.508,11.992-75.578-8.602-87.273-46.008
		c-11.711-37.414,8.391-77.461,44.891-89.445c36.5-12,75.586,8.594,87.281,46.008C501.086,393.156,480.984,433.203,444.477,445.195z
		"/>
</g>
</svg>
