<?xml version="1.0" encoding="utf-8"?>
<!-- Generator: Adobe Illustrator 15.1.0, SVG Export Plug-In . SVG Version: 6.00 Build 0)  -->
<!DOCTYPE svg PUBLIC "-//W3C//DTD SVG 1.1//EN" "http://www.w3.org/Graphics/SVG/1.1/DTD/svg11.dtd">
<svg version="1.1" id="Layer_1" xmlns="http://www.w3.org/2000/svg" xmlns:xlink="http://www.w3.org/1999/xlink" x="0px" y="0px"
	 width="1000px" height="1000px" viewBox="0 0 1000 1000" enable-background="new 0 0 1000 1000" xml:space="preserve">
<g>
	<path d="M990.469,250.062v-60c0-22.094-17.922-40-40-40h-900c-22.094,0-40,17.906-40,40v60h100v100h-100v100h100v100h-100v100h100
		v100h-100v60c0,22.094,17.906,40,40,40h900c22.078,0,40-17.906,40-40v-60h-100v-100h100v-100h-100v-100h100v-100h-100v-100H990.469
		z M390.469,650.062v-300l250,150L390.469,650.062z"/>
</g>
</svg>
