<?xml version="1.0" encoding="utf-8"?>
<!-- Generator: Adobe Illustrator 15.1.0, SVG Export Plug-In . SVG Version: 6.00 Build 0)  -->
<!DOCTYPE svg PUBLIC "-//W3C//DTD SVG 1.1//EN" "http://www.w3.org/Graphics/SVG/1.1/DTD/svg11.dtd">
<svg version="1.1" id="Layer_1" xmlns="http://www.w3.org/2000/svg" xmlns:xlink="http://www.w3.org/1999/xlink" x="0px" y="0px"
	 width="1000px" height="1000px" viewBox="0 0 1000 1000" enable-background="new 0 0 1000 1000" xml:space="preserve">
<g>
	<path d="M926.57,73.969c-19.508-19.531-51.195-19.531-70.703,0L74.375,855.453c-19.531,19.531-19.531,51.195,0,70.703
		c9.766,9.766,22.555,14.656,35.352,14.656c12.789,0,25.602-4.891,35.352-14.656L926.57,144.672
		C946.102,125.141,946.102,93.484,926.57,73.969z M710.516,459.734c69.461,94.18,90.93,175.953,77.953,188.945
		c-12.984,12.891-94.688-8.539-188.922-77.992L323.203,847.039C532.508,938.938,804.578,746.234,853.5,697.312
		c46.242-46.133,4.836-165.508-92.828-287.75L710.516,459.734z M433.805,397.039c-54.922-82.891-71.492-151.148-59.711-162.93
		c11.664-11.781,79.977,4.805,162.836,59.805l51.18-51.195c-113.18-83.703-219.711-116.695-262.812-73.492
		c-46.422,46.305-222.43,293.852-161.586,497.891L433.805,397.039z"/>
</g>
</svg>
