<?xml version="1.0" encoding="utf-8"?>
<!-- Generator: Adobe Illustrator 15.1.0, SVG Export Plug-In . SVG Version: 6.00 Build 0)  -->
<!DOCTYPE svg PUBLIC "-//W3C//DTD SVG 1.1//EN" "http://www.w3.org/Graphics/SVG/1.1/DTD/svg11.dtd">
<svg version="1.1" id="Layer_1" xmlns="http://www.w3.org/2000/svg" xmlns:xlink="http://www.w3.org/1999/xlink" x="0px" y="0px"
	 width="1000px" height="1000px" viewBox="0 0 1000 1000" enable-background="new 0 0 1000 1000" xml:space="preserve">
<path d="M262.125,345.742c10.055,0,19.742,1.523,28.875,4.336c34.477-38.633,72.703-73.789,114.117-105
	c-1.742-7.305-2.766-14.883-2.766-22.734c0-10.852,1.836-21.25,5.102-31c-46.367-33.281-96.812-61.203-150.469-82.789
	c-50.312,31.094-94.172,71.617-129.141,119.109c25.953,45.969,56.828,88.828,91.891,127.844
	C232.578,349.312,246.922,345.742,262.125,345.742z M164.258,443.609c0-13.734,2.859-26.812,7.977-38.68
	c-31.414-34.484-59.859-71.695-84.797-111.359C56.18,355.68,38.469,425.781,38.469,500.047c0,86.016,23.656,166.477,64.75,235.328
	c14.68-82.758,42.547-160.961,81.031-232.672C171.75,486.281,164.258,465.844,164.258,443.609z M500.227,124.469
	c25.852,0,49.289,10.094,66.773,26.469c51.062-21.977,104.844-38.82,160.781-49.578C660.25,62.438,581.992,40.055,498.453,40.055
	c-56.938,0-111.438,10.43-161.781,29.359c39.969,19.727,78.023,42.773,113.844,68.727
	C465.094,129.508,482.062,124.469,500.227,124.469z M646.578,585.438c6.094-12.672,14.75-23.891,25.438-32.812
	c-28.891-88.906-74.656-170.219-133.586-240.156c-11.742,4.984-24.648,7.742-38.203,7.742c-21.234,0-40.82-6.836-56.859-18.32
	c-35.469,26.977-68.289,57.203-98.148,90.18C354.531,407.039,360,424.672,360,443.609c0,10.227-1.57,20.07-4.484,29.328
	C441.367,530.297,540.156,569.617,646.578,585.438z M773.523,717.547c1.352,18.523,2.062,37.227,2.062,56.094
	c0,33.203-2.109,65.922-6.125,98.047c78-56.984,137.398-137.875,167.344-231.938c-35.469,8.578-71.875,14.711-109.023,18.281
	C819.055,684.812,799.141,706.484,773.523,717.547z M623.641,651.219C510.109,632.406,404.812,589.094,313.188,527
	c-14.875,9.125-32.328,14.492-51.062,14.492c-6.883,0-13.594-0.734-20.062-2.078c-43.867,83.172-71.906,175.93-79.953,274.289
	c43.789,46.953,97.227,84.781,157.25,110.18C393.898,809.273,498.094,714.461,623.641,651.219z M807.258,159.117
	c-73.727,7.109-144.125,25.609-209.664,53.422c0.336,3.219,0.5,6.492,0.5,9.805c0,15.445-3.68,30.008-10.047,43.008
	c65.477,76.883,116.344,166.477,148.453,264.547c39.797,0.711,73.82,25.086,88.453,59.719c44.281-4.492,87.398-12.969,128.938-25.18
	c2.945-21.039,4.578-42.516,4.578-64.391C958.469,364.852,900.125,243.281,807.258,159.117z M672.891,703.5
	c-117.195,54.906-215.195,139.453-286.164,242.828c35.773,8.922,73.188,13.734,111.727,13.734
	c69.398,0,135.141-15.453,194.141-42.969c9.469-46.359,14.484-94.32,14.484-143.453c0-17.75-0.797-35.32-2.125-52.734
	C693.133,717.117,682.281,711.18,672.891,703.5z"/>
</svg>
