<?xml version="1.0" encoding="utf-8"?>
<!-- Generator: Adobe Illustrator 15.1.0, SVG Export Plug-In . SVG Version: 6.00 Build 0)  -->
<!DOCTYPE svg PUBLIC "-//W3C//DTD SVG 1.1//EN" "http://www.w3.org/Graphics/SVG/1.1/DTD/svg11.dtd">
<svg version="1.1" id="Layer_1" xmlns="http://www.w3.org/2000/svg" xmlns:xlink="http://www.w3.org/1999/xlink" x="0px" y="0px"
	 width="1000px" height="1000px" viewBox="0 0 1000 1000" enable-background="new 0 0 1000 1000" xml:space="preserve">
<g>
	<path d="M963.023,20.352c-5.438-15.773-22.477-24.078-38.031-18.594c-15.57,5.492-23.797,22.727-18.375,38.484
		c45.984,133.5-45.289,233.18-114.852,286.578l-28.172-40.719c-9.43-13.617-30.578-24.953-46.992-25.195l-157.766,0.719
		c-16.406-0.258-40.852,7.344-54.305,16.883L39.703,607.93c-22.516,15.953-28,47.359-12.234,70.164l211.273,305.383
		c15.766,22.789,41.102,20.062,63.617,4.109l464.836-329.414c13.445-9.539,28.844-30.188,34.258-45.891l49.406-157.312
		c5.383-15.703,2.102-39.695-7.336-53.312l-17.172-24.812C919.859,304.578,1016.883,176.711,963.023,20.352z M746.758,488.148
		c-36.031,25.516-85.695,16.641-110.906-19.805c-25.234-36.484-16.484-86.719,19.562-112.266
		c28.594-20.266,65.734-18.789,92.469,0.883c-13.461,8.203-22.688,12.922-24.453,13.766c-14.906,7.125-21.273,25.125-14.266,40.203
		c5.102,10.945,15.844,17.359,27.055,17.359c4.258,0,8.594-0.938,12.703-2.891c9.586-4.57,19.898-10.094,30.648-16.523
		C784.422,438.523,772.734,469.742,746.758,488.148z"/>
</g>
</svg>
