<?xml version="1.0" encoding="utf-8"?>
<!-- Generator: Adobe Illustrator 15.1.0, SVG Export Plug-In . SVG Version: 6.00 Build 0)  -->
<!DOCTYPE svg PUBLIC "-//W3C//DTD SVG 1.1//EN" "http://www.w3.org/Graphics/SVG/1.1/DTD/svg11.dtd">
<svg version="1.1" id="Layer_1" xmlns="http://www.w3.org/2000/svg" xmlns:xlink="http://www.w3.org/1999/xlink" x="0px" y="0px"
	 width="1000px" height="1000px" viewBox="0 0 1000 1000" enable-background="new 0 0 1000 1000" xml:space="preserve">
<g>
	<path d="M866.031,229.32C710.867,126.117,536.57,90.445,329.922,149.688C168.609,195.938,20.781,379.375,9.336,536.539
		C-4.18,722.242,140.477,881.328,395.266,881.062c274.695-0.281,377.531-132.188,379.797-172.266
		c2.25-40.078-107.156-114.227-36.766-190.391c88.234-95.477,166.789-14.133,214.398-25.57
		C1000.312,481.383,1024.414,334.719,866.031,229.32z M547.328,695.195c-41.547,0-75.219-33.578-75.219-75s33.672-75,75.219-75
		s75.211,33.578,75.211,75S588.875,695.195,547.328,695.195z"/>
</g>
</svg>
