<?xml version="1.0" encoding="utf-8"?>
<!-- Generator: Adobe Illustrator 15.1.0, SVG Export Plug-In . SVG Version: 6.00 Build 0)  -->
<!DOCTYPE svg PUBLIC "-//W3C//DTD SVG 1.1//EN" "http://www.w3.org/Graphics/SVG/1.1/DTD/svg11.dtd">
<svg version="1.1" id="Layer_1" xmlns="http://www.w3.org/2000/svg" xmlns:xlink="http://www.w3.org/1999/xlink" x="0px" y="0px"
	 width="1000px" height="1000px" viewBox="0 0 1000 1000" enable-background="new 0 0 1000 1000" xml:space="preserve">
<g>
	<g>
		<path d="M675.469,150.062c-49.719,0-90,15.297-90,65v570c0,49.711,40.281,65,90,65c49.703,0,90-15.289,90-65v-570
			C765.469,165.359,725.172,150.062,675.469,150.062z"/>
		<path d="M325.469,150.062c-49.719,0-90,15.297-90,65v570c0,49.711,40.281,65,90,65c49.703,0,90-15.289,90-65v-570
			C415.469,165.359,375.172,150.062,325.469,150.062z"/>
	</g>
</g>
</svg>
