<?xml version="1.0" encoding="utf-8"?>
<!-- Generator: Adobe Illustrator 15.1.0, SVG Export Plug-In . SVG Version: 6.00 Build 0)  -->
<!DOCTYPE svg PUBLIC "-//W3C//DTD SVG 1.1//EN" "http://www.w3.org/Graphics/SVG/1.1/DTD/svg11.dtd">
<svg version="1.1" id="Layer_1" xmlns="http://www.w3.org/2000/svg" xmlns:xlink="http://www.w3.org/1999/xlink" x="0px" y="0px"
	 width="1000px" height="1000px" viewBox="0 0 1000 1000" enable-background="new 0 0 1000 1000" xml:space="preserve">
<g>
	<path d="M75.469,325.062h850c28.531,0,23.844-30.398,9.648-35.352c-14.203-4.961-172.148-64.648-199.648-64.648h-45v-150h-380v150
		h-45c-27.5,0-185.453,59.688-199.648,64.648C51.617,294.664,46.93,325.062,75.469,325.062z M935.469,380.062h-870
		c-27.5,0-55,32.5-55,60v175c0,27.5,27.5,60,55,60h99.117l-44.117,250h760l-44.125-250h99.125c27.5,0,55-32.5,55-60v-175
		C990.469,412.562,962.969,380.062,935.469,380.062z M220.469,825.062l70-325h420l70,325H220.469z"/>
</g>
</svg>
