<?xml version="1.0" encoding="utf-8"?>
<!-- Generator: Adobe Illustrator 15.1.0, SVG Export Plug-In . SVG Version: 6.00 Build 0)  -->
<!DOCTYPE svg PUBLIC "-//W3C//DTD SVG 1.1//EN" "http://www.w3.org/Graphics/SVG/1.1/DTD/svg11.dtd">
<svg version="1.1" id="Layer_1" xmlns="http://www.w3.org/2000/svg" xmlns:xlink="http://www.w3.org/1999/xlink" x="0px" y="0px"
	 width="1000px" height="1000px" viewBox="0 0 1000 1000" enable-background="new 0 0 1000 1000" xml:space="preserve">
<path d="M898.469,50.062h-800c-55,0-100,45-100,100v600c0,55,45,99.008,100,99.008h199v-98.008h-200v-461h801.992v461h-200v98.008
	h199.008c55,0,100-44.008,100-99.008v-600C998.469,95.062,953.469,50.062,898.469,50.062z M128.469,216.555
	c-20.727,0-37.5-16.328-37.5-36.492s16.773-36.492,37.5-36.492c20.719,0,37.5,16.328,37.5,36.492S149.188,216.555,128.469,216.555z
	 M228.469,216.555c-20.727,0-37.5-16.328-37.5-36.492s16.773-36.492,37.5-36.492c20.719,0,37.5,16.328,37.5,36.492
	S249.188,216.555,228.469,216.555z M899.461,211.07H297.469v-62h601.992V211.07z M495.867,408.758L253.273,649.852h150v300.211
	h185.195V649.852h150L495.867,408.758z"/>
</svg>
