<?xml version="1.0" encoding="utf-8"?>
<!-- Generator: Adobe Illustrator 15.1.0, SVG Export Plug-In . SVG Version: 6.00 Build 0)  -->
<!DOCTYPE svg PUBLIC "-//W3C//DTD SVG 1.1//EN" "http://www.w3.org/Graphics/SVG/1.1/DTD/svg11.dtd">
<svg version="1.1" id="Layer_1" xmlns="http://www.w3.org/2000/svg" xmlns:xlink="http://www.w3.org/1999/xlink" x="0px" y="0px"
	 width="1000px" height="1000px" viewBox="0 0 1000 1000" enable-background="new 0 0 1000 1000" xml:space="preserve">
<g>
	<g>
		<path d="M439.133,90.062c222.281,0,402.992,178.055,408.438,399.758h122.867l-183.914,205l-183.914-205h142.781
			c-5.398-165.078-140.398-297.258-306.258-297.258c-169.289,0-306.523,137.664-306.523,307.5s137.234,307.5,306.523,307.5
			c67.891,0,130.586-22.18,181.375-59.656l70.281,75.211c-69.383,54.453-156.734,86.945-251.656,86.945
			c-225.727,0-408.695-183.555-408.695-410C30.438,273.633,213.406,90.062,439.133,90.062z"/>
	</g>
</g>
</svg>
