<?xml version="1.0" encoding="utf-8"?>
<!-- Generator: Adobe Illustrator 15.1.0, SVG Export Plug-In . SVG Version: 6.00 Build 0)  -->
<!DOCTYPE svg PUBLIC "-//W3C//DTD SVG 1.1//EN" "http://www.w3.org/Graphics/SVG/1.1/DTD/svg11.dtd">
<svg version="1.1" id="Layer_1" xmlns="http://www.w3.org/2000/svg" xmlns:xlink="http://www.w3.org/1999/xlink" x="0px" y="0px"
	 width="1000px" height="1000px" viewBox="0 0 1000 1000" enable-background="new 0 0 1000 1000" xml:space="preserve">
<g>
	<g>
		<path d="M561.719,90.062c-222.289,0-402.992,178.055-408.438,399.758H30.414l183.922,204.992L398.242,489.82H255.469
			c5.391-165.078,140.398-297.258,306.25-297.258c169.297,0,306.523,137.68,306.523,307.5c0,169.828-137.227,307.5-306.523,307.5
			c-67.891,0-130.586-22.188-181.367-59.656l-70.297,75.203c69.398,54.461,156.742,86.953,251.664,86.953
			c225.719,0,408.695-183.555,408.695-410S787.438,90.062,561.719,90.062z"/>
	</g>
</g>
</svg>
