<?xml version="1.0" encoding="utf-8"?>
<!-- Generator: Adobe Illustrator 15.1.0, SVG Export Plug-In . SVG Version: 6.00 Build 0)  -->
<!DOCTYPE svg PUBLIC "-//W3C//DTD SVG 1.1//EN" "http://www.w3.org/Graphics/SVG/1.1/DTD/svg11.dtd">
<svg version="1.1" id="Layer_1" xmlns="http://www.w3.org/2000/svg" xmlns:xlink="http://www.w3.org/1999/xlink" x="0px" y="0px"
	 width="1000px" height="1000px" viewBox="0 0 1000 1000" enable-background="new 0 0 1000 1000" xml:space="preserve">
<g>
	<path d="M38.469,500.086c0,254.039,205.953,459.977,460,459.977c254.062,0,460-205.938,460-459.977
		c0-254.062-205.938-460.023-460-460.023C244.422,40.062,38.469,246.023,38.469,500.086z M858.469,500.086
		c0,198.805-161.172,359.977-360,359.977s-360-161.172-360-359.977c0-198.852,161.172-360.023,360-360.023
		S858.469,301.234,858.469,500.086z M305.969,410.062v180h204.508v112.5l190.492-202.5l-190.492-202.5v112.5H305.969z"/>
</g>
</svg>
