<?xml version="1.0" encoding="utf-8"?>
<!-- Generator: Adobe Illustrator 15.1.0, SVG Export Plug-In . SVG Version: 6.00 Build 0)  -->
<!DOCTYPE svg PUBLIC "-//W3C//DTD SVG 1.1//EN" "http://www.w3.org/Graphics/SVG/1.1/DTD/svg11.dtd">
<svg version="1.1" id="Layer_1" xmlns="http://www.w3.org/2000/svg" xmlns:xlink="http://www.w3.org/1999/xlink" x="0px" y="0px"
	 width="1000px" height="1000px" viewBox="0 0 1000 1000" enable-background="new 0 0 1000 1000" xml:space="preserve">
<g>
	<path d="M120.469,120.062V238.5c354.312,0,641.547,287.25,641.547,641.562h118.453
		C880.469,460.328,540.195,120.062,120.469,120.062z M120.469,356.945v118.438c223.484,0,404.664,181.188,404.664,404.68H643.57
		C643.57,591.156,409.375,356.945,120.469,356.945z M233.953,653.055c-62.664,0-113.484,50.828-113.484,113.5
		c0,62.703,50.82,113.508,113.484,113.508c62.703,0,113.523-50.805,113.523-113.508
		C347.477,703.883,296.656,653.055,233.953,653.055z"/>
</g>
</svg>
