<?xml version="1.0" encoding="utf-8"?>
<!-- Generator: Adobe Illustrator 15.1.0, SVG Export Plug-In . SVG Version: 6.00 Build 0)  -->
<!DOCTYPE svg PUBLIC "-//W3C//DTD SVG 1.1//EN" "http://www.w3.org/Graphics/SVG/1.1/DTD/svg11.dtd">
<svg version="1.1" id="Layer_1" xmlns="http://www.w3.org/2000/svg" xmlns:xlink="http://www.w3.org/1999/xlink" x="0px" y="0px"
	 width="1000px" height="1000px" viewBox="0 0 1000 1000" enable-background="new 0 0 1000 1000" xml:space="preserve">
<g>
	<path d="M855.234,144.281C771.469,60.523,666.297,29.883,632.797,63.391L497.969,198.203
		c-20.445,20.453-38.281,88.898-30.094,158.188L59.828,764.438c-24.203,24.203-4.594,83.047,43.812,131.438
		c48.391,48.406,107.242,68.016,131.438,43.828l408.047-408.055c69.297,8.18,137.734-9.664,158.188-30.102l134.828-134.828
		C969.633,333.219,939.008,228.047,855.234,144.281z M406.508,552.078c-18.633-18.633-12.555-54.852,13.477-80.906
		c26.055-26.039,62.281-32.109,80.898-13.477c18.594,18.602,12.555,54.852-13.477,80.883
		C461.352,564.625,425.102,570.672,406.508,552.078z M744.031,255.5c-64.906-64.891-81.195-150.516-75.438-156.297
		c5.781-5.781,88.031,13.883,152.953,78.781c64.883,64.898,84.359,147.344,78.766,152.938
		C894.734,336.508,808.906,320.406,744.031,255.5z"/>
</g>
</svg>
