<?xml version="1.0" encoding="utf-8"?>
<!-- Generator: Adobe Illustrator 15.1.0, SVG Export Plug-In . SVG Version: 6.00 Build 0)  -->
<!DOCTYPE svg PUBLIC "-//W3C//DTD SVG 1.1//EN" "http://www.w3.org/Graphics/SVG/1.1/DTD/svg11.dtd">
<svg version="1.1" id="Layer_1" xmlns="http://www.w3.org/2000/svg" xmlns:xlink="http://www.w3.org/1999/xlink" x="0px" y="0px"
	 width="1000px" height="1000px" viewBox="0 0 1000 1000" enable-background="new 0 0 1000 1000" xml:space="preserve">
<g>
	<path d="M839.672,500.062c0-52.375,32.242-93.711,80.797-122.133c-8.742-29.234-20.336-57.234-34.594-83.594
		c-54.438,14.242-98.5-7.094-135.547-44.125c-37.039-37.047-48.375-81.117-34.125-135.562
		c-26.359-14.258-54.359-25.844-83.609-34.586c-28.414,48.562-79.742,80.797-132.125,80.797
		c-52.375,0-103.703-32.234-132.133-80.797c-29.234,8.727-57.234,20.328-83.594,34.586c14.242,54.438,2.914,98.508-34.133,135.562
		c-37.039,37.039-81.117,58.367-135.555,44.125c-14.258,26.359-25.852,54.359-34.586,83.594
		c48.555,28.422,80.789,69.758,80.789,122.133c0,52.367-32.234,103.719-80.789,132.133c8.734,29.242,20.328,57.234,34.586,83.594
		c54.445-14.242,98.516-2.914,135.555,34.141c37.031,37.031,48.375,81.117,34.133,135.547
		c26.359,14.258,54.359,25.859,83.602,34.586c28.43-48.547,79.75-80.797,132.125-80.789c52.383,0,103.711,32.242,132.125,80.789
		c29.25-8.734,57.25-20.328,83.617-34.594c-14.242-54.422-2.922-98.508,34.117-135.539c37.047-37.055,81.117-58.383,135.547-44.141
		c14.258-26.359,25.852-54.352,34.594-83.594C871.914,593.781,839.672,552.43,839.672,500.062z M500.469,682.719
		c-100.875,0-182.648-81.773-182.648-182.656s81.773-182.656,182.648-182.656s182.641,81.773,182.641,182.656
		S601.344,682.719,500.469,682.719z"/>
</g>
</svg>
