<?xml version="1.0" encoding="utf-8"?>
<!-- Generator: Adobe Illustrator 15.1.0, SVG Export Plug-In . SVG Version: 6.00 Build 0)  -->
<!DOCTYPE svg PUBLIC "-//W3C//DTD SVG 1.1//EN" "http://www.w3.org/Graphics/SVG/1.1/DTD/svg11.dtd">
<svg version="1.1" id="Layer_1" xmlns="http://www.w3.org/2000/svg" xmlns:xlink="http://www.w3.org/1999/xlink" x="0px" y="0px"
	 width="1000px" height="1000px" viewBox="0 0 1000 1000" enable-background="new 0 0 1000 1000" xml:space="preserve">
<g>
	<path d="M750.469,650.062c-34.367,0-65.93,11.688-91.219,31.117L398.289,524.617c1.32-8.008,2.18-16.18,2.18-24.555
		c0-8.391-0.859-16.547-2.18-24.555l260.961-156.57c25.289,19.445,56.852,31.125,91.219,31.125c82.828,0,150-67.172,150-150
		c0-82.836-67.172-150-150-150c-82.836,0-150,67.164-150,150c0,8.375,0.859,16.539,2.172,24.547L341.688,381.188
		c-25.297-19.445-56.859-31.125-91.219-31.125c-82.836,0-150,67.164-150,150s67.164,150,150,150
		c34.359,0,65.922-11.672,91.219-31.125l260.953,156.578c-1.312,8.008-2.172,16.156-2.172,24.547c0,82.836,67.164,150,150,150
		c82.828,0,150-67.164,150-150C900.469,717.234,833.297,650.062,750.469,650.062z"/>
</g>
</svg>
