<?xml version="1.0" encoding="utf-8"?>
<!-- Generator: Adobe Illustrator 15.1.0, SVG Export Plug-In . SVG Version: 6.00 Build 0)  -->
<!DOCTYPE svg PUBLIC "-//W3C//DTD SVG 1.1//EN" "http://www.w3.org/Graphics/SVG/1.1/DTD/svg11.dtd">
<svg version="1.1" id="Layer_1" xmlns="http://www.w3.org/2000/svg" xmlns:xlink="http://www.w3.org/1999/xlink" x="0px" y="0px"
	 width="1000px" height="1000px" viewBox="0 0 1000 1000" enable-background="new 0 0 1000 1000" xml:space="preserve">
<g>
	<path d="M905.562,174.414c-14.789-12.773-95.312-73.719-110.336-86.711c-15.031-12.984-38.555-16.641-55.109-16.641H258.844
		c-16.547,0-40.078,3.656-55.102,16.641c-15.031,12.992-95.547,73.938-110.344,86.711c-14.797,12.781-27.117,32.062-23.172,59.562
		c3.961,27.5,96.82,648.633,96.82,648.633c5.227,15.641,23.039,28.453,39.594,28.453h585.688c16.547,0,34.359-12.812,39.586-28.453
		c0,0,92.859-621.133,96.82-648.633C932.688,206.477,920.359,187.195,905.562,174.414z M499.484,609.492
		c-162.383,0-197.172-229.852-204.359-277.219h91.82c13.844,69.086,45.281,187.219,112.539,187.219
		c67.25,0,98.688-118.133,112.539-187.219h91.812C696.648,379.641,661.867,609.492,499.484,609.492z M147.641,241.062l110.281-115
		h483.109l110.297,115H147.641z"/>
</g>
</svg>
