<?xml version="1.0" encoding="utf-8"?>
<!-- Generator: Adobe Illustrator 15.1.0, SVG Export Plug-In . SVG Version: 6.00 Build 0)  -->
<!DOCTYPE svg PUBLIC "-//W3C//DTD SVG 1.1//EN" "http://www.w3.org/Graphics/SVG/1.1/DTD/svg11.dtd">
<svg version="1.1" id="Layer_1" xmlns="http://www.w3.org/2000/svg" xmlns:xlink="http://www.w3.org/1999/xlink" x="0px" y="0px"
	 width="1000px" height="1000px" viewBox="0 0 1000 1000" enable-background="new 0 0 1000 1000" xml:space="preserve">
<path d="M755.055,334.211h35.344v100.633l210-180l-210-180v119.367h-35.344c-184.688,0-288.828,136.867-380.703,257.617
	c-82.633,108.594-153.984,202.383-269.297,202.383H0.398v140h104.656c184.711,0,288.828-136.859,380.727-257.617
	C568.398,428,639.766,334.211,755.055,334.211z M270.953,422.414c7.867-10.188,15.805-20.609,23.82-31.141
	c19.531-25.672,40.195-52.797,62.562-79.789c-66.039-61.711-145.75-107.273-252.281-107.273H0.398v140h104.656
	C171.414,344.211,223.195,375.367,270.953,422.414z M790.398,664.211h-35.344c-70.359,0-124.344-35.031-174.531-86.945
	c-5.031,6.57-10.078,13.195-15.156,19.875c-22.047,28.984-45.766,60.078-71.938,90.852
	c67.844,66.211,150.016,116.219,261.625,116.219h35.344v120l210-180l-210-180V664.211z"/>
</svg>
