<?xml version="1.0" encoding="utf-8"?>
<!-- Generator: Adobe Illustrator 15.1.0, SVG Export Plug-In . SVG Version: 6.00 Build 0)  -->
<!DOCTYPE svg PUBLIC "-//W3C//DTD SVG 1.1//EN" "http://www.w3.org/Graphics/SVG/1.1/DTD/svg11.dtd">
<svg version="1.1" id="Layer_1" xmlns="http://www.w3.org/2000/svg" xmlns:xlink="http://www.w3.org/1999/xlink" x="0px" y="0px"
	 width="1000px" height="1000px" viewBox="0 0 1000 1000" enable-background="new 0 0 1000 1000" xml:space="preserve">
<g>
	<path d="M750.469,50.062h-500c-55,0-100,45-100,100v700c0,55,45,100,100,100h500c55,0,100-45,100-100v-700
		C850.469,95.062,805.469,50.062,750.469,50.062z M640.273,526.094c-11.883,18.5-18.188,10.594-14.609,0
		c9.43-27.891,9.039-112.328-69.617-124.719v260.641c0,48.586-27.969,79.102-87.469,98.188
		c-57.812,18.539-122.516-0.719-137.633-42.25c-15.117-41.523,18.875-92.016,75.93-112.797
		c31.828-11.562,64.109-11.422,89.062-1.828V235.688h60.109C556.047,298.812,725.094,394.141,640.273,526.094z"/>
</g>
</svg>
