<?xml version="1.0" encoding="utf-8"?>
<!-- Generator: Adobe Illustrator 15.1.0, SVG Export Plug-In . SVG Version: 6.00 Build 0)  -->
<!DOCTYPE svg PUBLIC "-//W3C//DTD SVG 1.1//EN" "http://www.w3.org/Graphics/SVG/1.1/DTD/svg11.dtd">
<svg version="1.1" id="Layer_1" xmlns="http://www.w3.org/2000/svg" xmlns:xlink="http://www.w3.org/1999/xlink" x="0px" y="0px"
	 width="1000px" height="1000px" viewBox="0 0 1000 1000" enable-background="new 0 0 1000 1000" xml:space="preserve">
<path d="M454.969,524.5h90v100h455c0,0-7.414-222.891-10-292.672c-2.461-66.32-26.195-107.328-100-107.328H729.562
	c-24.859-46.859-51.609-97.266-59.82-112.742C653.188,80.562,647.531,74.5,610.766,74.5H389.164
	c-36.766,0-42.422,6.062-58.977,37.258c-8.211,15.477-34.953,65.883-59.82,112.742H109.969c-73.812,0-97.266,41.016-100,107.328
	c-2.734,66.305-10,292.672-10,292.672h455V524.5z M382.469,170.281c11.453-21.578,15.367-25.781,40.82-25.781h153.359
	c25.445,0,29.367,4.203,40.82,25.781c4.297,8.094,15.914,30.008,28.766,54.219H353.695
	C366.547,200.289,378.172,178.375,382.469,170.281z M544.969,774.5h-90v-100h-430c0,0,6.219,89.906,10,166.133
	c1.562,31.602,10.859,83.867,89.969,83.867H875c79.109,0,88.211-52.273,89.969-83.867c4.352-78.398,10-166.133,10-166.133h-430
	V774.5z"/>
</svg>
