<?xml version="1.0" encoding="utf-8"?>
<!-- Generator: Adobe Illustrator 15.1.0, SVG Export Plug-In . SVG Version: 6.00 Build 0)  -->
<!DOCTYPE svg PUBLIC "-//W3C//DTD SVG 1.1//EN" "http://www.w3.org/Graphics/SVG/1.1/DTD/svg11.dtd">
<svg version="1.1" id="Layer_1" xmlns="http://www.w3.org/2000/svg" xmlns:xlink="http://www.w3.org/1999/xlink" x="0px" y="0px"
	 width="1000px" height="1000px" viewBox="0 0 1000 1000" enable-background="new 0 0 1000 1000" xml:space="preserve">
<g>
	<g>
		<path d="M500.445,40.062c-254.023,0-459.977,205.969-459.977,460c0,254.055,205.953,460,459.977,460
			c254.062,0,460.023-205.945,460.023-460C960.469,246.031,754.508,40.062,500.445,40.062z M500.445,860.062
			c-198.789,0-359.977-161.18-359.977-360c0-198.828,161.188-360,359.977-360c198.852,0,360.023,161.172,360.023,360
			C860.469,698.883,699.297,860.062,500.445,860.062z"/>
		<polygon points="535.469,240.062 465.445,240.062 465.445,514.57 635.719,684.812 685.211,635.32 535.469,485.562 		"/>
	</g>
</g>
</svg>
