<?xml version="1.0" encoding="utf-8"?>
<!-- Generator: Adobe Illustrator 15.1.0, SVG Export Plug-In . SVG Version: 6.00 Build 0)  -->
<!DOCTYPE svg PUBLIC "-//W3C//DTD SVG 1.1//EN" "http://www.w3.org/Graphics/SVG/1.1/DTD/svg11.dtd">
<svg version="1.1" id="Layer_1" xmlns="http://www.w3.org/2000/svg" xmlns:xlink="http://www.w3.org/1999/xlink" x="0px" y="0px"
	 width="1000px" height="1000px" viewBox="0 0 1000 1000" enable-background="new 0 0 1000 1000" xml:space="preserve">
<g>
	<path d="M780.469,228.945c0-107,0-117.453,0-117.453c0-39.445-125.359-111.43-280-111.43c-154.648,0-280,71.984-280,111.43
		c0,0,0,10.453,0,117.453c0,106.984,193.836,195.367,193.836,271.117c0,75.758-193.836,164.133-193.836,271.125s0,117.453,0,117.453
		c0,39.445,125.352,111.422,280,111.422c154.641,0,280-71.977,280-111.422c0,0,0-10.461,0-117.453S586.625,575.82,586.625,500.062
		C586.625,424.312,780.469,335.93,780.469,228.945z M297.508,116.492c34.789-21.945,100.008-54.109,205.695-54.109
		s200.312,54.109,200.312,54.109c7.07,4.305,34.898,19.18,15.859,30.453c-41.938,24.836-123.93,50.984-218.906,50.984
		c-94.984,0-174.234-28.828-216.172-53.664C265.25,132.984,297.508,116.492,297.508,116.492z M525.531,500.062
		c0,59.648,49.812,98.07,102.555,149.328c38.531,37.453,91.289,88.727,91.289,121.797v66.406
		c-48.461-24.148-193.578-47.789-193.578-125.188c0-39.188-50.664-39.188-50.664,0c0,77.398-145.117,101.039-193.57,125.188v-66.406
		c0-33.07,52.75-84.344,91.289-121.797c52.734-51.258,102.547-89.68,102.547-149.328S425.586,402,372.852,350.742
		c-38.539-37.453-91.289-88.734-91.289-121.797l-2.367-49.984c51.312,27.617,132.633,53.969,221.273,53.969
		s170.344-26.352,221.641-53.969l-2.734,49.984c0,33.062-52.758,84.344-91.289,121.797C575.344,402,525.531,440.414,525.531,500.062
		z"/>
</g>
</svg>
