<?xml version="1.0" encoding="utf-8"?>
<!-- Generator: Adobe Illustrator 15.1.0, SVG Export Plug-In . SVG Version: 6.00 Build 0)  -->
<!DOCTYPE svg PUBLIC "-//W3C//DTD SVG 1.1//EN" "http://www.w3.org/Graphics/SVG/1.1/DTD/svg11.dtd">
<svg version="1.1" id="Layer_1" xmlns="http://www.w3.org/2000/svg" xmlns:xlink="http://www.w3.org/1999/xlink" x="0px" y="0px"
	 width="1000px" height="1000px" viewBox="0 0 1000 1000" enable-background="new 0 0 1000 1000" xml:space="preserve">
<g>
	<path d="M559.484,717.758c0-72.555,54.977-112.664,144.695-172.094c109.711-72.703,246.289-163.172,246.289-377.906
		c0-19.328-15.852-35-35.406-35h-171.5c-24.258-44.781-96.469-92.695-243.094-92.695c-146.633,0-218.844,47.914-243.102,92.695
		H85.859c-19.547,0-35.391,15.672-35.391,35c0,214.734,136.562,305.203,246.289,377.906
		c89.711,59.43,144.695,99.539,144.695,172.094v65.531C347.242,793.758,278,828.633,278,870.062c0,49.711,99.594,90,222.469,90
		c122.867,0,222.469-40.289,222.469-90c0-41.43-69.234-76.305-163.453-86.773V717.758z M698.312,465.055
		c28.375-60.016,50.805-141.359,54.438-262.297h125.43C866.258,337.727,785.125,405.906,698.312,465.055z M500.469,101.367
		c136.609-0.094,189.969,55.781,189.898,76.492c0,20.836-53.273,76.617-189.898,76.734
		c-136.625-0.117-189.906-55.898-189.906-76.734C310.5,157.148,363.859,101.273,500.469,101.367z M122.75,202.758h125.43
		c3.633,120.938,26.062,202.281,54.445,262.297C215.812,405.906,134.672,337.727,122.75,202.758z"/>
</g>
</svg>
