<?xml version="1.0" encoding="utf-8"?>
<!-- Generator: Adobe Illustrator 15.1.0, SVG Export Plug-In . SVG Version: 6.00 Build 0)  -->
<!DOCTYPE svg PUBLIC "-//W3C//DTD SVG 1.1//EN" "http://www.w3.org/Graphics/SVG/1.1/DTD/svg11.dtd">
<svg version="1.1" id="Layer_1" xmlns="http://www.w3.org/2000/svg" xmlns:xlink="http://www.w3.org/1999/xlink" x="0px" y="0px"
	 width="1000px" height="1000px" viewBox="0 0 1000 1000" enable-background="new 0 0 1000 1000" xml:space="preserve">
<g>
	<path d="M500.477,90.062c-213.984,0-346.93,70.508-339.727,127.695l72.094,593.352c2.891,23.086,111.047,98.836,267.633,98.953
		c156.562-0.117,264.727-75.867,267.617-98.953l72.094-593.352C847.391,160.57,714.461,90.062,500.477,90.062z M500.477,304.594
		c-156.586-0.117-267.633-55.898-267.633-76.734c-0.078-20.719,111.07-76.586,267.633-76.5
		c156.539-0.086,267.711,55.781,267.617,76.5C768.094,248.695,657.039,304.477,500.477,304.594z"/>
</g>
</svg>
