<?xml version="1.0" encoding="utf-8"?>
<!-- Generator: Adobe Illustrator 15.1.0, SVG Export Plug-In . SVG Version: 6.00 Build 0)  -->
<!DOCTYPE svg PUBLIC "-//W3C//DTD SVG 1.1//EN" "http://www.w3.org/Graphics/SVG/1.1/DTD/svg11.dtd">
<svg version="1.1" id="Layer_1" xmlns="http://www.w3.org/2000/svg" xmlns:xlink="http://www.w3.org/1999/xlink" x="0px" y="0px"
	 width="1000px" height="1000px" viewBox="0 0 1000 1000" enable-background="new 0 0 1000 1000" xml:space="preserve">
<g>
	<path d="M790.469,400.062h-90v-120c0-144.859-66.719-230-200-230s-200,85.141-200,230v20h100v-40c0-72.242,39.859-110,100-110
		c60.133,0,100,37.758,100,110v140h-400c-27.617,0-50,32.383-50,60v390c0,27.5,21.414,56.906,47.586,65.352l59.82,19.297
		c26.172,8.453,70.094,15.352,97.594,15.352h290c27.5,0,71.414-6.898,97.586-15.352l59.82-19.297
		c26.172-8.445,47.594-37.852,47.594-65.352v-390C850.469,432.445,818.086,400.062,790.469,400.062z"/>
</g>
</svg>
