<?xml version="1.0" encoding="utf-8"?>
<!-- Generator: Adobe Illustrator 15.1.0, SVG Export Plug-In . SVG Version: 6.00 Build 0)  -->
<!DOCTYPE svg PUBLIC "-//W3C//DTD SVG 1.1//EN" "http://www.w3.org/Graphics/SVG/1.1/DTD/svg11.dtd">
<svg version="1.1" id="Layer_1" xmlns="http://www.w3.org/2000/svg" xmlns:xlink="http://www.w3.org/1999/xlink" x="0px" y="0px"
	 width="1000px" height="1000px" viewBox="0 0 1000 1000" enable-background="new 0 0 1000 1000" xml:space="preserve">
<g>
	<path d="M498.484,960.062c254.047,0,459.984-205.953,459.984-460c0-254.062-205.938-460-459.984-460
		c-254.062,0-460.016,205.938-460.016,460C38.469,754.109,244.422,960.062,498.484,960.062z M498.484,140.062
		c198.812,0,359.984,161.172,359.984,360s-161.172,360-359.984,360c-198.844,0-360.016-161.172-360.016-360
		S299.641,140.062,498.484,140.062z M408.469,692.562h180V488.055h112.5l-202.5-190.492l-202.5,190.492h112.5V692.562z"/>
</g>
</svg>
