<?xml version="1.0" encoding="utf-8"?>
<!-- Generator: Adobe Illustrator 15.1.0, SVG Export Plug-In . SVG Version: 6.00 Build 0)  -->
<!DOCTYPE svg PUBLIC "-//W3C//DTD SVG 1.1//EN" "http://www.w3.org/Graphics/SVG/1.1/DTD/svg11.dtd">
<svg version="1.1" id="Layer_1" xmlns="http://www.w3.org/2000/svg" xmlns:xlink="http://www.w3.org/1999/xlink" x="0px" y="0px"
	 width="1000px" height="1000px" viewBox="0 0 1000 1000" enable-background="new 0 0 1000 1000" xml:space="preserve">
<g>
	<path d="M500.477,75.062l-270,253.984h150v246.016h240V329.047h150L500.477,75.062z M967.453,652.172L808.266,545.062h-98.156
		l170.016,130.43H702.898c-5.078,0-9.688,2.578-11.977,6.641l-40.859,111.758H350.844l-40.859-111.758
		c-2.266-4.062-6.891-6.641-11.969-6.641H120.789l170.039-130.43h-98.188L33.484,652.172C9.797,666.32-4.367,698.93,1.984,724.633
		l28.062,153.695c6.367,25.703,34.531,46.734,62.578,46.734h815.688c28.047,0,56.203-21.031,62.578-46.734l28.047-153.695
		C1005.32,698.93,991.141,666.32,967.453,652.172z"/>
</g>
</svg>
