<?xml version="1.0" encoding="utf-8"?>
<!-- Generator: Adobe Illustrator 15.1.0, SVG Export Plug-In . SVG Version: 6.00 Build 0)  -->
<!DOCTYPE svg PUBLIC "-//W3C//DTD SVG 1.1//EN" "http://www.w3.org/Graphics/SVG/1.1/DTD/svg11.dtd">
<svg version="1.1" id="Layer_1" xmlns="http://www.w3.org/2000/svg" xmlns:xlink="http://www.w3.org/1999/xlink" x="0px" y="0px"
	 width="1000px" height="1000px" viewBox="0 0 1000 1000" enable-background="new 0 0 1000 1000" xml:space="preserve">
<g>
	<path d="M500.469,220.062c-328.016,0-500,241.68-500,280s171.984,280,500,280s500-241.68,500-280S828.484,220.062,500.469,220.062z
		 M500.469,715.453c-122.734,0-222.227-96.422-222.227-215.391c0-118.961,99.492-215.391,222.227-215.391
		s222.227,96.43,222.227,215.391C722.695,619.031,623.203,715.453,500.469,715.453z M500.469,500.062
		c-20.352-22.344,33.172-107.695,0-107.695c-61.359,0-111.117,48.227-111.117,107.695c0,59.477,49.758,107.695,111.117,107.695
		s111.109-48.219,111.109-107.695C611.578,472.742,517.773,519.047,500.469,500.062z"/>
</g>
</svg>
