<?xml version="1.0" encoding="utf-8"?>
<!-- Generator: Adobe Illustrator 15.1.0, SVG Export Plug-In . SVG Version: 6.00 Build 0)  -->
<!DOCTYPE svg PUBLIC "-//W3C//DTD SVG 1.1//EN" "http://www.w3.org/Graphics/SVG/1.1/DTD/svg11.dtd">
<svg version="1.1" id="Layer_1" xmlns="http://www.w3.org/2000/svg" xmlns:xlink="http://www.w3.org/1999/xlink" x="0px" y="0px"
	 width="1000px" height="1000px" viewBox="0 0 1000 1000" enable-background="new 0 0 1000 1000" xml:space="preserve">
<g>
	<path d="M827.547,171.969c-72.164-72.164-126.305-61.328-126.305-61.328L448.656,363.227l-288.688,288.68l-50.5,238.156
		l238.133-50.516l288.695-288.68l252.594-252.578C888.891,298.289,899.734,244.141,827.547,171.969z M333.414,810.922
		l-81.164,17.477c-7.852-14.664-17.266-29.305-34.547-46.594c-17.281-17.273-31.938-26.68-46.586-34.555l17.492-81.156
		l23.453-23.477c0,0,44.188,0.875,94.055,50.773c49.883,49.875,50.781,94.07,50.781,94.07L333.414,810.922z"/>
</g>
</svg>
